<svg width="617" height="88" viewBox="0 0 617 88" fill="none" xmlns="http://www.w3.org/2000/svg">
<path d="M24.88 6.504C25.648 6.184 26.384 5.896 27.088 5.64C27.856 5.32 28.656 5.224 29.488 5.352C29.424 5.672 29.36 5.96 29.296 6.216C29.296 6.408 29.264 6.664 29.2 6.984C29.52 7.048 29.84 7.112 30.16 7.17599C30.48 7.24 30.8 7.24 31.12 7.17599C32.016 7.048 32.88 6.888 33.712 6.696C34.608 6.504 35.504 6.344 36.4 6.216C37.104 6.088 37.808 6.024 38.512 6.024C39.28 5.96 39.984 5.99199 40.624 6.12C47.728 7.592 53.104 11.432 56.752 17.64C57.648 18.92 58.256 20.296 58.576 21.768C58.896 23.176 58.864 24.648 58.48 26.184C57.392 29.32 55.216 30.984 51.952 31.176C50.288 31.176 48.848 30.76 47.632 29.928C46.48 29.032 45.744 27.784 45.424 26.184C44.976 23.944 44.08 22.28 42.736 21.192C41.392 20.04 39.728 19.24 37.744 18.792C36.08 18.344 34.448 18.088 32.848 18.024C31.248 17.896 29.616 18.248 27.952 19.08C25.648 20.168 24.304 21.64 23.92 23.496C23.536 25.352 24.176 27.24 25.84 29.16C27.44 30.568 29.104 31.848 30.832 33C32.816 34.408 34.768 35.752 36.688 37.032C38.672 38.248 40.592 39.56 42.448 40.968C45.328 43.144 47.824 45.544 49.936 48.168C52.112 50.792 53.872 53.8 55.216 57.192C56.24 59.88 56.72 62.472 56.656 64.968C56.592 67.464 56.112 69.832 55.216 72.072C54.384 74.312 53.2 76.36 51.664 78.216C50.192 80.008 48.496 81.544 46.576 82.824C44.72 84.168 42.736 85.16 40.624 85.8C38.512 86.504 36.432 86.792 34.384 86.664C34.64 86.28 34.96 85.96 35.344 85.704C35.728 85.512 36.112 85.288 36.496 85.032C36.88 84.84 37.232 84.584 37.552 84.264C37.872 84.008 38.128 83.624 38.32 83.112C37.616 82.984 36.976 83.048 36.4 83.304C35.888 83.624 35.344 83.848 34.768 83.976C34.064 84.232 33.328 84.456 32.56 84.648C31.792 84.904 31.056 85.096 30.352 85.224C28.624 85.608 26.992 85.544 25.456 85.032C23.92 84.584 22.384 83.976 20.848 83.208C20.72 83.464 20.528 83.688 20.272 83.88C20.08 84.072 19.888 84.328 19.696 84.648C15.216 82.856 11.248 80.2 7.792 76.68C5.424 73.992 3.408 70.792 1.744 67.08C1.616 66.568 1.488 66.12 1.36 65.736C1.232 65.288 1.104 64.808 0.976 64.296C0.592 61.16 1.712 58.92 4.336 57.576C5.552 56.936 6.896 56.712 8.368 56.904C9.84 57.096 11.088 57.704 12.112 58.728C12.432 59.112 12.752 59.528 13.072 59.976C13.392 60.424 13.712 60.84 14.032 61.224C14.416 61.928 14.736 62.632 14.992 63.336C15.312 63.976 15.664 64.616 16.048 65.256C17.008 66.856 18.192 68.264 19.6 69.48C21.008 70.696 22.544 71.688 24.208 72.456C25.872 73.16 27.6 73.64 29.392 73.896C31.248 74.152 33.104 74.12 34.96 73.8C36.432 73.544 37.744 73.032 38.896 72.264C40.048 71.432 40.944 70.472 41.584 69.384C42.224 68.232 42.608 66.984 42.736 65.64C42.864 64.232 42.672 62.824 42.16 61.416C41.392 59.24 40.304 57.32 38.896 55.656C37.488 53.928 35.856 52.424 34 51.144C32.144 49.736 30.256 48.424 28.336 47.208C26.48 45.928 24.592 44.648 22.672 43.368C20.944 42.216 19.28 40.968 17.68 39.624C16.144 38.28 14.736 36.776 13.456 35.112C12.112 33.192 11.184 31.208 10.672 29.16C10.16 27.048 10 24.968 10.192 22.92C10.384 20.808 10.928 18.792 11.824 16.872C12.784 14.952 14.096 13.192 15.76 11.592C17.04 10.248 18.448 9.192 19.984 8.424C21.584 7.592 23.28 6.92 25.072 6.408C25.712 7.496 26.16 8.07199 26.416 8.13599C26.736 8.2 27.344 7.816 28.24 6.984C27.6 6.856 27.024 6.75999 26.512 6.696C26 6.632 25.456 6.568 24.88 6.504ZM11.92 69.192C11.664 69.064 11.376 68.84 11.056 68.52C11.12 68.712 11.184 68.904 11.248 69.096C11.312 69.224 11.376 69.352 11.44 69.48C11.76 70.312 12.144 71.048 12.592 71.688C13.104 72.328 13.808 72.808 14.704 73.128C14.576 72.104 14.48 71.496 14.416 71.304C14.352 71.112 14.128 70.856 13.744 70.536C13.424 70.344 13.104 70.12 12.784 69.864C12.528 69.608 12.24 69.384 11.92 69.192ZM30.64 35.976C30.896 36.808 31.088 37.352 31.216 37.608C31.344 37.8 31.728 37.992 32.368 38.184C33.84 38.888 35.216 39.688 36.496 40.584C37.776 41.48 39.056 42.408 40.336 43.368C40.528 43.496 40.752 43.624 41.008 43.752C41.264 43.816 41.584 43.944 41.968 44.136C41.072 42.472 39.536 40.904 37.36 39.432C35.248 37.896 33.008 36.744 30.64 35.976ZM50.896 59.88C50.64 58.664 50.416 57.608 50.224 56.712C50.032 55.752 49.68 54.92 49.168 54.216C49.104 54.152 48.848 54.12 48.4 54.12C48.4 54.312 48.368 54.472 48.304 54.6C48.304 54.728 48.304 54.856 48.304 54.984C48.368 55.176 48.432 55.368 48.496 55.56C48.56 55.752 48.688 56.008 48.88 56.328H47.152C47.088 56.968 47.152 57.448 47.344 57.768C47.536 58.088 47.824 58.344 48.208 58.536C48.592 58.728 49.008 58.92 49.456 59.112C49.968 59.304 50.448 59.56 50.896 59.88ZM20.944 77.832C20.496 77.064 19.92 76.488 19.216 76.104C18.512 75.656 17.68 75.24 16.72 74.856C17.296 75.88 17.904 76.616 18.544 77.064C19.248 77.448 20.048 77.704 20.944 77.832ZM25.264 8.51999C24.752 8.392 24.368 8.296 24.112 8.232C23.856 8.104 23.6 7.976 23.344 7.848C23.28 8.168 23.248 8.488 23.248 8.808C23.248 9.128 23.248 9.512 23.248 9.96C23.568 9.704 23.856 9.512 24.112 9.384C24.368 9.192 24.752 8.904 25.264 8.51999ZM50.512 63.432C50.896 62.984 51.088 62.696 51.088 62.568C51.024 62.44 50.96 62.312 50.896 62.184C50.832 61.992 50.768 61.832 50.704 61.704C50.64 61.96 50.608 62.216 50.608 62.472C50.608 62.664 50.576 62.984 50.512 63.432ZM47.824 51.432C47.696 51.304 47.536 51.208 47.344 51.144L47.248 51.336C47.248 51.464 47.312 51.592 47.44 51.72C47.568 51.656 47.696 51.56 47.824 51.432ZM47.152 54.696C46.896 54.568 46.768 54.504 46.768 54.504C46.64 54.568 46.576 54.6 46.576 54.6C46.512 54.6 46.48 54.632 46.48 54.696C46.544 54.824 46.608 54.92 46.672 54.984C46.736 54.984 46.8 55.016 46.864 55.08C46.992 54.952 47.088 54.824 47.152 54.696ZM98.5135 10.728C100.754 10.6 102.898 10.856 104.946 11.496C107.058 12.136 109.138 13 111.186 14.088C112.658 14.984 113.938 16.008 115.026 17.16C116.114 18.248 117.138 19.528 118.098 21C118.994 22.792 119.346 24.552 119.154 26.28C119.09 27.944 118.578 29.352 117.618 30.504C116.658 31.592 115.346 32.296 113.682 32.616C111.954 32.872 110.418 32.648 109.074 31.944C107.73 31.24 106.802 30.12 106.29 28.584C105.842 27.56 105.33 26.696 104.754 25.992C104.178 25.288 103.378 24.744 102.354 24.36C101.01 23.784 99.6975 23.464 98.4175 23.4C97.1375 23.336 95.8895 23.656 94.6735 24.36C89.9375 26.408 86.3535 29.576 83.9215 33.864C82.6415 36.104 81.5855 38.344 80.7535 40.584C79.9215 42.824 79.2495 45.192 78.7375 47.688C78.2255 49.672 78.0655 51.624 78.2575 53.544C78.5135 55.4 78.9935 57.256 79.6975 59.112C80.6575 61.608 82.0335 63.624 83.8255 65.16C85.6815 66.696 87.6975 67.752 89.8735 68.328C92.1135 68.84 94.3855 68.808 96.6895 68.232C98.9935 67.656 101.138 66.472 103.122 64.68C103.698 64.168 104.242 63.56 104.754 62.856C105.33 62.152 105.874 61.48 106.386 60.84C106.642 60.52 106.866 60.168 107.058 59.784C107.314 59.4 107.602 59.048 107.922 58.728C109.138 57.448 110.578 56.744 112.242 56.616C113.906 56.488 115.474 56.904 116.946 57.864C118.226 58.888 119.058 60.104 119.442 61.512C119.826 62.92 119.57 64.456 118.674 66.12C117.97 67.784 117.042 69.32 115.89 70.728C114.738 72.072 113.49 73.288 112.146 74.376C108.114 77.448 103.922 79.56 99.5695 80.712C95.2175 81.8 90.5775 81.736 85.6495 80.52C79.8895 79.048 75.3455 76.36 72.0175 72.456C68.7535 68.552 66.4495 63.752 65.1055 58.056C64.4655 55.176 64.2735 52.36 64.5295 49.608C64.7855 46.856 65.3295 44.072 66.1615 41.256C66.8015 39.016 67.5375 36.84 68.3695 34.728C69.2655 32.616 70.2895 30.504 71.4415 28.392C75.0255 21.864 80.2415 16.904 87.0895 13.512C89.0095 12.424 90.8335 11.688 92.5615 11.304C94.2895 10.92 96.2735 10.728 98.5135 10.728ZM96.4975 12.648C95.9855 12.776 95.4735 12.904 94.9615 13.032C94.5135 13.16 94.0015 13.224 93.4255 13.224C92.1455 13.288 91.0575 13.672 90.1615 14.376C89.3295 15.016 88.2735 15.784 86.9935 16.68C89.2975 15.848 91.7615 15.176 94.3855 14.664C97.0735 14.152 99.6335 14.056 102.066 14.376C104.562 14.632 106.802 15.432 108.786 16.776C110.77 18.056 112.274 20.072 113.298 22.824C113.362 22.952 113.49 23.08 113.682 23.208C113.938 23.336 114.226 23.56 114.546 23.88C114.674 23.304 114.77 22.856 114.833 22.536C114.962 22.152 114.994 21.8 114.93 21.48C114.866 21.16 114.546 20.68 113.97 20.04C113.458 19.336 112.85 18.632 112.146 17.928C111.506 17.224 110.866 16.616 110.226 16.104C109.586 15.528 109.138 15.176 108.882 15.048C108.754 14.984 108.562 14.984 108.306 15.048C108.114 15.048 107.954 15.048 107.826 15.048C107.442 14.92 107.186 14.792 107.058 14.664C105.842 13.576 104.562 12.936 103.218 12.744C101.938 12.552 100.562 12.52 99.0895 12.648C98.6415 12.008 98.1935 11.752 97.7455 11.88C97.3615 12.008 96.9455 12.264 96.4975 12.648ZM70.1935 64.872C70.0015 64.36 69.8735 64.04 69.8095 63.912C69.7455 63.72 69.6495 63.56 69.5215 63.432C67.9855 60.296 67.4735 57.064 67.9855 53.736C68.1135 53.16 68.1135 52.616 67.9855 52.104C67.9215 51.848 67.8255 51.592 67.6975 51.336C67.5695 51.08 67.4415 50.76 67.3135 50.376C66.3535 53.256 66.0975 55.976 66.5455 58.536C66.9935 61.096 68.2095 63.208 70.1935 64.872ZM75.0895 28.584C73.6175 29.608 72.5295 30.696 71.8255 31.848C71.1855 32.936 70.8015 34.312 70.6735 35.976C71.6975 34.824 72.5615 33.672 73.2655 32.52C73.9695 31.368 74.5775 30.056 75.0895 28.584ZM96.4975 12.648H99.1855C98.6735 13.096 98.1935 13.288 97.7455 13.224C97.3615 13.16 96.9455 12.968 96.4975 12.648ZM155.517 56.424C155.837 56.744 156.093 57.032 156.285 57.288C156.477 57.544 156.637 57.736 156.765 57.864C158.941 59.976 161.309 61.704 163.869 63.048C166.429 64.392 169.149 65.512 172.029 66.408C172.605 66.536 173.181 66.632 173.757 66.696C174.333 66.696 174.877 66.728 175.389 66.792C176.797 66.984 177.981 67.496 178.941 68.328C179.965 69.096 180.637 70.12 180.957 71.4C181.341 72.808 181.245 74.184 180.669 75.528C180.093 76.808 179.165 77.8 177.885 78.504C175.837 79.72 173.661 80.104 171.357 79.656C163.805 78.056 156.893 74.92 150.621 70.248C149.789 69.608 148.989 68.968 148.221 68.328C147.453 67.688 146.717 67.016 146.013 66.312C145.757 66.056 145.469 65.864 145.149 65.736C144.829 65.544 144.445 65.288 143.997 64.968C143.869 65.48 143.773 65.896 143.709 66.216C143.645 66.536 143.645 66.856 143.709 67.176C143.837 68.904 143.997 70.632 144.189 72.36C144.445 74.088 144.637 75.784 144.765 77.448C144.829 77.96 144.861 78.472 144.861 78.984C144.861 79.496 144.861 79.976 144.861 80.424C144.733 82.024 144.189 83.368 143.229 84.456C142.269 85.608 141.053 86.344 139.581 86.664C137.917 86.92 136.413 86.696 135.069 85.992C133.725 85.352 132.701 84.296 131.997 82.824C131.549 81.992 131.293 81.064 131.229 80.04C130.845 76.008 130.461 72.008 130.077 68.04C129.757 64.072 129.437 60.072 129.117 56.04C128.669 51.56 128.253 47.112 127.869 42.696C127.485 38.216 127.069 33.768 126.621 29.352C126.301 25.96 126.013 22.568 125.757 19.176C125.501 15.784 125.213 12.36 124.893 8.904C124.765 7.752 124.861 6.664 125.181 5.64C125.501 4.552 126.141 3.56 127.101 2.664C128.061 1.89599 129.085 1.44799 130.173 1.32C131.325 1.12799 132.413 1.19199 133.437 1.51199C134.461 1.76799 135.389 2.27999 136.221 3.048C137.053 3.816 137.661 4.776 138.045 5.92799C138.237 6.632 138.365 7.336 138.429 8.04C138.557 8.744 138.685 9.448 138.813 10.152C138.941 10.664 139.005 11.144 139.005 11.592C139.069 12.04 139.133 12.456 139.197 12.84C140.029 12.968 140.637 12.84 141.021 12.456C141.405 12.072 141.821 11.688 142.269 11.304C144.253 9.896 146.269 8.712 148.317 7.752C150.429 6.792 152.669 6.088 155.037 5.64C160.285 4.68 165.341 5.128 170.205 6.984C170.525 7.048 170.813 7.272 171.069 7.65599C170.493 7.65599 169.917 7.592 169.341 7.464C168.765 7.272 168.157 7.144 167.517 7.08C166.941 7.016 166.333 7.048 165.693 7.17599C165.117 7.24 164.509 7.528 163.869 8.04C164.317 8.232 164.637 8.392 164.829 8.51999C165.085 8.648 165.309 8.744 165.501 8.808C166.397 9.064 167.229 9.256 167.997 9.384C168.829 9.512 169.693 9.576 170.589 9.576C171.805 9.576 172.893 9.832 173.853 10.344C174.877 10.856 175.997 11.144 177.213 11.208C177.597 11.208 178.045 11.432 178.557 11.88C179.069 12.328 179.453 12.776 179.709 13.224C181.309 15.464 182.653 17.768 183.741 20.136C184.317 21.032 184.733 22.056 184.989 23.208C185.309 24.296 185.533 25.384 185.661 26.472C186.109 29.672 185.917 32.84 185.085 35.976C184.317 39.112 183.037 41.992 181.245 44.616C179.453 47.176 177.213 49.384 174.525 51.24C171.901 53.096 168.989 54.344 165.789 54.984C164.637 55.304 163.421 55.528 162.141 55.656C160.925 55.72 159.709 55.848 158.493 56.04C157.725 56.04 156.733 56.168 155.517 56.424ZM130.749 31.368C130.749 31.816 130.781 32.136 130.845 32.328C130.973 32.2 131.101 32.136 131.229 32.136C131.421 32.072 131.517 31.976 131.517 31.848C131.581 31.72 131.549 31.592 131.421 31.464C131.357 31.272 131.293 31.112 131.229 30.984C131.933 30.024 131.933 28.936 131.229 27.72C130.717 28.424 130.461 29.064 130.461 29.64C130.461 30.152 130.557 30.728 130.749 31.368ZM174.717 14.952C174.589 14.504 174.397 14.152 174.141 13.896C173.949 13.576 173.597 13.416 173.085 13.416C173.149 14.312 173.597 14.952 174.429 15.336C174.877 15.656 175.261 16.136 175.581 16.776C175.965 17.352 176.573 17.576 177.405 17.448C177.341 16.488 177.053 15.88 176.541 15.624C176.093 15.304 175.485 15.08 174.717 14.952ZM132.957 56.04C133.405 53.928 133.501 52.232 133.245 50.952C133.053 49.608 132.509 48.456 131.613 47.496C131.165 48.776 130.973 50.024 131.037 51.24C131.165 52.456 131.325 53.672 131.517 54.888C131.581 55.144 131.709 55.4 131.901 55.656C132.157 55.912 132.381 56.168 132.573 56.424C132.189 57.384 131.965 58.376 131.901 59.4C131.837 60.424 132.125 61.448 132.765 62.472C133.085 62.856 133.213 63.24 133.149 63.624C133.149 64.008 133.085 64.456 132.957 64.968C132.829 65.288 132.733 65.704 132.669 66.216C132.669 66.728 132.733 67.016 132.861 67.08C133.629 67.528 134.141 68.104 134.397 68.808C134.717 69.448 135.165 70.216 135.741 71.112C135.741 70.6 135.773 70.184 135.837 69.864C135.901 69.544 135.869 69.288 135.741 69.096C135.613 68.584 135.485 68.072 135.357 67.56C135.229 66.984 135.101 66.408 134.973 65.832C134.909 65.64 134.781 65.416 134.589 65.16C134.461 64.904 134.397 64.68 134.397 64.488C134.525 62.952 134.429 61.512 134.109 60.168C133.853 58.76 133.469 57.384 132.957 56.04ZM172.125 29.736C172.125 29.544 172.125 29.288 172.125 28.968C172.125 28.648 172.061 28.232 171.933 27.72C171.613 25.928 171.037 24.296 170.205 22.824C169.437 21.288 168.125 20.104 166.269 19.272C164.349 18.504 162.365 18.088 160.317 18.024C158.269 17.96 156.285 18.376 154.365 19.272C151.357 20.68 149.053 22.312 147.453 24.168C145.853 26.024 144.829 27.912 144.381 29.832C143.997 31.752 144.125 33.608 144.765 35.4C145.405 37.192 146.493 38.728 148.029 40.008C149.565 41.288 151.485 42.216 153.789 42.792C156.157 43.368 158.813 43.368 161.757 42.792C163.229 42.536 164.573 41.992 165.789 41.16C167.069 40.328 168.157 39.336 169.053 38.184C170.013 37.032 170.749 35.752 171.261 34.344C171.837 32.872 172.125 31.336 172.125 29.736ZM160.605 66.6C161.885 68.2 163.101 69.288 164.253 69.864C165.405 70.44 166.589 70.664 167.805 70.536C167.805 70.216 167.773 70.056 167.709 70.056C166.493 69.48 165.309 68.936 164.157 68.424C163.005 67.848 161.821 67.24 160.605 66.6ZM132.957 18.984C131.485 18.984 130.781 19.56 130.845 20.712C130.845 21.416 130.973 21.896 131.229 22.152C131.549 22.408 132.125 22.6 132.957 22.728V18.984ZM161.661 8.616C161.533 8.36 161.341 8.168 161.085 8.04C159.677 8.04 158.589 8.552 157.821 9.576C159.229 10.664 160.157 10.792 160.605 9.96C160.413 9.576 160.349 9.352 160.413 9.288C160.477 9.16 160.605 9.096 160.797 9.096C160.989 9.032 161.181 8.99999 161.373 8.99999C161.565 8.936 161.661 8.808 161.661 8.616ZM131.133 42.984C131.005 44.072 130.973 44.744 131.037 45C131.165 45.192 131.645 45.352 132.477 45.48C132.861 44.264 132.413 43.432 131.133 42.984ZM155.037 9.96C154.205 9.64 153.565 9.57599 153.117 9.768C152.733 9.896 152.317 10.248 151.869 10.824C152.957 11.144 154.013 10.856 155.037 9.96ZM130.845 15.624C131.293 15.816 131.645 16.008 131.901 16.2C132.157 16.392 132.477 16.616 132.861 16.872V13.32C132.477 13.768 132.157 14.152 131.901 14.472C131.645 14.792 131.293 15.176 130.845 15.624ZM131.709 23.784C131.197 24.168 130.941 24.392 130.941 24.456C130.941 24.648 130.973 24.84 131.037 25.032C131.165 25.224 131.261 25.416 131.325 25.608C131.517 25.48 131.709 25.384 131.901 25.32C132.093 25.192 132.189 25.064 132.189 24.936C132.317 24.808 132.285 24.648 132.093 24.456C131.965 24.264 131.837 24.04 131.709 23.784ZM131.517 33.288C131.197 33.864 130.973 34.248 130.845 34.44C130.781 34.568 130.781 34.696 130.845 34.824C130.845 34.952 130.877 35.112 130.941 35.304C131.069 35.432 131.165 35.56 131.229 35.688C131.293 35.688 131.357 35.688 131.421 35.688C131.549 35.624 131.645 35.592 131.709 35.592C131.645 35.272 131.613 34.984 131.613 34.728C131.613 34.472 131.581 33.992 131.517 33.288ZM131.613 38.376C131.549 38.312 131.517 38.248 131.517 38.184C131.517 38.12 131.453 38.056 131.325 37.992C131.005 38.184 130.845 38.28 130.845 38.28C130.845 38.408 130.877 38.504 130.941 38.568C131.069 38.568 131.165 38.632 131.229 38.76L131.613 38.376ZM202.61 71.976C202.93 62.696 203.218 53.416 203.474 44.136C203.73 34.792 203.442 25.384 202.61 15.912C202.034 16.04 201.522 16.168 201.074 16.296C200.626 16.424 200.21 16.552 199.826 16.68C197.97 17.064 196.242 16.84 194.642 16.008C193.106 15.112 192.05 13.832 191.474 12.168C190.962 10.568 191.058 9.064 191.762 7.65599C192.466 6.18399 193.682 5.032 195.41 4.2C196.114 3.88 196.818 3.592 197.522 3.336C198.29 3.08 199.09 2.888 199.922 2.75999C203.378 2.50399 206.834 2.408 210.29 2.472C213.81 2.472 217.33 2.984 220.85 4.008C221.362 4.136 221.906 4.36 222.482 4.68C223.058 4.936 223.602 5.224 224.114 5.544C225.266 6.312 226.066 7.304 226.514 8.51999C226.962 9.672 226.994 10.856 226.61 12.072C225.714 14.568 224.082 16.04 221.714 16.488C220.946 16.616 220.21 16.68 219.506 16.68C218.802 16.68 218.002 16.712 217.106 16.776C217.042 17.16 216.946 17.544 216.818 17.928C216.754 18.312 216.722 18.664 216.722 18.984C216.722 19.816 216.722 20.648 216.722 21.48C216.786 22.312 216.818 23.176 216.818 24.072C216.882 28.36 216.946 32.68 217.01 37.032C217.074 41.384 217.106 45.768 217.106 50.184C217.106 53.064 217.042 55.976 216.914 58.92C216.85 61.8 216.754 64.68 216.626 67.56C216.626 68.136 216.626 68.744 216.626 69.384C216.69 69.96 216.722 70.504 216.722 71.016C217.426 71.528 218.098 71.752 218.738 71.688C219.442 71.624 220.146 71.624 220.85 71.688C222.834 71.816 224.402 72.616 225.554 74.088C226.706 75.496 227.122 77.16 226.802 79.08C226.674 80.104 226.29 80.968 225.65 81.672C225.074 82.376 224.338 82.952 223.442 83.4C222.738 83.72 221.938 84.008 221.042 84.264C220.21 84.584 219.41 84.712 218.642 84.648C215.762 84.584 212.882 84.584 210.002 84.648C207.122 84.776 204.242 85 201.362 85.32C200.402 85.512 199.538 85.512 198.77 85.32C196.914 85.192 195.378 84.584 194.162 83.496C192.946 82.472 192.274 81.224 192.146 79.752C192.018 78.088 192.466 76.68 193.49 75.528C194.514 74.312 195.858 73.512 197.522 73.128C198.354 72.936 199.154 72.776 199.922 72.648C200.69 72.52 201.586 72.296 202.61 71.976ZM214.13 58.824V61.32C214.386 60.872 214.546 60.456 214.61 60.072C214.738 59.624 214.61 59.176 214.226 58.728C214.482 57.768 214.514 56.84 214.322 55.944C214.194 54.984 214.098 54.056 214.034 53.16C213.586 54.248 213.362 55.208 213.362 56.04C213.426 56.872 213.682 57.8 214.13 58.824ZM223.154 73.512C222.642 73.64 222.194 73.704 221.81 73.704C221.49 73.704 221.17 73.736 220.85 73.8C219.25 73.928 217.682 74.184 216.146 74.568C214.61 74.888 213.042 74.952 211.442 74.76C210.546 74.632 209.586 74.664 208.562 74.856C207.602 75.048 206.61 75.208 205.586 75.336C205.458 75.4 205.202 75.624 204.818 76.008C205.65 77.352 206.546 78.056 207.506 78.12C208.466 78.12 209.554 77.928 210.77 77.544C211.986 77.096 213.298 76.616 214.706 76.104C216.114 75.528 217.682 75.336 219.41 75.528C221.138 75.592 222.322 75.56 222.962 75.432C223.602 75.24 223.666 74.6 223.154 73.512ZM219.986 8.808C220.178 7.46399 219.794 6.75999 218.834 6.696C217.938 6.568 217.106 6.472 216.338 6.408C215.57 6.344 214.738 6.248 213.842 6.12C212.562 5.864 211.058 6.088 209.33 6.79199C209.714 7.36799 210.098 7.88 210.482 8.328C210.866 8.712 211.41 8.744 212.114 8.424C212.306 8.36 212.498 8.328 212.69 8.328C212.882 8.264 213.042 8.296 213.17 8.424C213.746 8.744 214.322 8.904 214.898 8.904C215.474 8.904 216.018 8.872 216.53 8.808C217.106 8.68 217.682 8.584 218.258 8.51999C218.834 8.456 219.41 8.552 219.986 8.808ZM211.346 58.632C211.474 58.632 211.602 58.632 211.73 58.632C211.858 58.632 211.986 58.6 212.114 58.536C212.306 57.576 212.466 56.616 212.594 55.656C212.722 54.632 212.498 53.64 211.922 52.68C211.41 52.872 211.154 53 211.154 53.064C211.154 53.96 211.154 54.888 211.154 55.848C211.218 56.744 211.282 57.672 211.346 58.632ZM211.922 51.72C212.242 50.44 212.402 49.352 212.402 48.456C212.466 47.496 212.306 46.536 211.922 45.576C211.602 45.896 211.346 46.184 211.154 46.44C211.026 46.696 210.962 47.016 210.962 47.4C210.962 47.784 211.026 48.296 211.154 48.936C211.346 49.576 211.602 50.504 211.922 51.72ZM211.058 36.456C210.994 37.032 210.962 37.544 210.962 37.992C210.962 38.376 210.962 38.888 210.962 39.528C211.73 38.952 212.114 38.44 212.114 37.992C212.114 37.544 211.762 37.032 211.058 36.456ZM211.058 32.904C211.058 33.16 211.026 33.416 210.962 33.672H211.25V32.904H211.058ZM214.034 51.048V50.472C213.906 50.472 213.81 50.504 213.746 50.568C213.746 50.568 213.714 50.568 213.65 50.568H213.554C213.554 50.824 213.618 51.016 213.746 51.144C213.81 51.144 213.842 51.144 213.842 51.144C213.842 51.08 213.906 51.048 214.034 51.048ZM247.097 14.472C248.633 13.704 250.073 12.968 251.417 12.264C252.825 11.496 254.265 10.664 255.737 9.768C255.801 9.832 255.833 9.928 255.833 10.056C255.897 10.12 255.993 10.184 256.121 10.248C255.865 10.568 255.641 10.92 255.449 11.304C255.257 11.624 255.001 11.944 254.681 12.264C255.193 12.52 255.641 12.584 256.025 12.456C256.409 12.264 256.793 12.072 257.177 11.88C258.585 10.984 259.961 10.248 261.305 9.672C262.713 9.096 264.249 8.872 265.913 8.99999C266.297 9.064 266.585 9.032 266.777 8.904C266.969 8.776 267.129 8.616 267.257 8.424C267.449 8.168 267.609 7.944 267.737 7.752C267.929 7.496 268.153 7.272 268.409 7.08C272.761 6.696 276.825 7.56 280.601 9.672C282.585 10.76 284.217 12.072 285.497 13.608C286.777 15.08 287.705 16.712 288.281 18.504C288.921 20.232 289.145 22.088 288.953 24.072C288.825 25.992 288.313 27.944 287.417 29.928C286.457 31.976 285.305 33.832 283.961 35.496C282.681 37.16 281.209 38.76 279.545 40.296C279.033 40.808 278.553 41.288 278.105 41.736C277.657 42.12 277.177 42.568 276.665 43.08C276.985 43.784 277.401 44.296 277.913 44.616C278.425 44.872 278.937 45.128 279.449 45.384C283.737 48.072 286.809 51.816 288.665 56.616C290.457 61.8 289.849 66.664 286.841 71.208C285.177 73.896 283.097 76.04 280.601 77.64C278.169 79.176 275.417 80.296 272.345 81C269.273 81.64 266.201 81.896 263.129 81.768C260.057 81.704 256.921 81.384 253.721 80.808C253.401 80.744 253.081 80.68 252.761 80.616C252.441 80.552 252.121 80.488 251.801 80.424C251.673 80.424 251.545 80.456 251.417 80.52C251.289 80.52 251.097 80.52 250.841 80.52C250.713 80.84 250.553 81.16 250.361 81.48C250.233 81.864 250.073 82.216 249.881 82.536C248.473 85.544 246.073 86.856 242.681 86.472C241.273 86.28 240.057 85.736 239.033 84.84C238.073 84.008 237.433 82.856 237.113 81.384C236.857 80.616 236.697 79.88 236.633 79.176C236.569 78.408 236.505 77.608 236.441 76.776C236.249 72.104 236.025 67.464 235.769 62.856C235.577 58.184 235.385 53.448 235.193 48.648C235.065 45.64 234.969 42.664 234.905 39.72C234.841 36.712 234.649 33.704 234.329 30.696C234.201 28.392 234.041 26.088 233.849 23.784C233.657 21.48 233.433 19.208 233.177 16.968C233.113 16.584 233.049 16.2 232.985 15.816C232.985 15.368 232.985 14.952 232.985 14.568C232.985 11.176 234.649 8.99999 237.977 8.04C239.385 7.656 240.793 7.752 242.201 8.328C243.609 8.904 244.697 9.864 245.465 11.208C245.785 11.72 246.073 12.232 246.329 12.744C246.585 13.256 246.841 13.832 247.097 14.472ZM275.129 50.376C274.809 50.248 274.521 50.12 274.265 49.992C274.009 49.8 273.689 49.704 273.305 49.704C273.177 49.704 273.017 49.8 272.825 49.992C272.633 50.184 272.409 50.344 272.153 50.472C272.857 50.792 273.433 50.92 273.881 50.856C274.329 50.792 274.777 50.6 275.225 50.28C275.673 50.792 276.185 51.272 276.761 51.72C277.337 52.104 277.881 52.552 278.393 53.064C278.521 53.192 278.585 53.288 278.585 53.352C278.649 53.352 278.617 53.32 278.489 53.256C278.681 53.32 278.713 53.352 278.585 53.352C278.521 53.288 278.425 53.224 278.297 53.16C278.169 52.072 277.913 51.4 277.529 51.144C277.209 50.824 276.409 50.568 275.129 50.376ZM249.689 54.504C249.433 55.784 249.337 57.032 249.401 58.248C249.529 59.464 249.593 60.712 249.593 61.992C249.593 62.824 249.753 63.496 250.073 64.008C250.457 64.52 251.001 65 251.705 65.448C254.777 67.624 257.913 68.84 261.113 69.096C264.313 69.352 267.641 68.936 271.097 67.848C271.609 67.72 272.121 67.496 272.633 67.176C273.145 66.792 273.657 66.344 274.169 65.832C276.153 64.04 276.505 61.96 275.225 59.592C274.777 58.696 274.201 57.96 273.497 57.384C272.857 56.808 272.121 56.296 271.289 55.848C270.073 55.144 268.857 54.632 267.641 54.312C266.425 53.928 265.177 53.672 263.897 53.544C261.465 53.16 259.097 53.128 256.793 53.448C254.553 53.704 252.185 54.056 249.689 54.504ZM249.209 41.064C249.529 40.936 249.849 40.872 250.169 40.872C250.489 40.808 250.777 40.712 251.033 40.584C253.081 39.88 255.033 39.176 256.889 38.472C258.809 37.704 260.729 36.936 262.649 36.168C265.401 34.952 267.833 33.256 269.945 31.08C271.993 29.352 273.561 27.336 274.649 25.032C275.673 22.856 275.097 21.32 272.921 20.424C271.897 20.04 270.809 19.848 269.657 19.848C268.569 19.784 267.481 19.88 266.393 20.136C262.809 20.84 259.609 22.152 256.793 24.072C254.041 25.992 251.609 28.36 249.497 31.176C249.305 31.56 249.081 31.976 248.825 32.424C248.569 32.808 248.441 33.224 248.441 33.672C248.377 34.888 248.377 36.104 248.441 37.32C248.569 38.472 248.825 39.72 249.209 41.064ZM245.465 56.424C245.657 55.208 245.753 54.376 245.753 53.928C245.881 52.392 245.753 50.856 245.369 49.32C244.985 47.72 244.825 46.12 244.889 44.52C244.889 44.456 244.825 44.392 244.697 44.328C244.633 44.2 244.569 44.072 244.505 43.944C243.353 43.752 242.745 44.232 242.681 45.384C242.617 46.6 242.713 47.816 242.969 49.032C243.225 50.184 243.417 51.368 243.545 52.584C243.609 53.288 243.769 53.928 244.025 54.504C244.281 55.016 244.761 55.656 245.465 56.424ZM272.633 35.496C272.953 35.432 273.241 35.432 273.497 35.496C273.753 35.496 273.945 35.432 274.073 35.304C274.713 34.856 275.417 34.28 276.185 33.576C276.953 32.808 277.625 32.008 278.201 31.176C278.777 30.344 279.193 29.512 279.449 28.68C279.705 27.784 279.705 26.952 279.449 26.184C278.361 27.848 277.241 29.416 276.089 30.888C274.937 32.296 273.785 33.832 272.633 35.496ZM281.753 66.6C280.921 67.432 280.281 68.072 279.833 68.52C279.385 68.968 279.033 69.352 278.777 69.672C278.585 69.992 278.425 70.28 278.297 70.536C278.233 70.792 278.169 71.144 278.105 71.592C278.873 70.952 279.577 70.312 280.217 69.672C280.921 68.968 281.433 67.944 281.753 66.6ZM242.297 39.144C242.233 39.848 242.169 40.488 242.105 41.064C242.041 41.64 242.457 42.184 243.353 42.696C243.545 42.056 243.737 41.544 243.929 41.16C244.121 40.712 244.217 40.36 244.217 40.104C244.281 39.848 244.153 39.656 243.833 39.528C243.577 39.4 243.065 39.272 242.297 39.144ZM274.073 76.008C272.857 76.136 272.121 76.296 271.865 76.488C271.673 76.616 271.801 76.904 272.249 77.352C272.569 77.096 272.857 76.872 273.113 76.68C273.369 76.424 273.689 76.2 274.073 76.008ZM263.129 46.056C262.233 46.056 261.657 46.152 261.401 46.344C261.145 46.472 260.729 46.984 260.153 47.88C260.729 47.56 261.241 47.272 261.689 47.016C262.137 46.696 262.617 46.376 263.129 46.056ZM242.681 32.808C242.425 33.256 242.233 33.576 242.105 33.768C241.977 33.896 241.913 34.024 241.913 34.152C241.849 34.28 241.849 34.44 241.913 34.632C241.977 34.824 242.009 35.016 242.009 35.208C242.137 35.08 242.265 34.952 242.393 34.824C242.585 34.696 242.745 34.568 242.873 34.44C243.001 34.312 243.001 34.152 242.873 33.96C242.809 33.768 242.745 33.384 242.681 32.808ZM269.273 8.04C269.721 8.808 270.041 9.256 270.233 9.384C270.425 9.44799 270.937 9.352 271.769 9.096C271.321 8.904 270.905 8.744 270.521 8.616C270.137 8.488 269.721 8.296 269.273 8.04ZM243.833 26.184C243.193 25.928 242.745 25.768 242.489 25.704C242.233 25.64 242.009 25.544 241.817 25.416C241.817 25.416 241.721 25.512 241.529 25.704C241.465 25.768 241.433 25.832 241.433 25.896C241.625 26.024 241.785 26.152 241.913 26.28C242.041 26.408 242.169 26.504 242.297 26.568C242.425 26.696 242.585 26.696 242.777 26.568C242.969 26.44 243.321 26.312 243.833 26.184ZM245.561 58.248C245.433 57.992 245.305 57.768 245.177 57.576C245.049 57.704 244.953 57.832 244.889 57.96C244.889 58.088 244.825 58.184 244.697 58.248C244.825 58.312 244.889 58.376 244.889 58.44C244.953 58.504 245.017 58.536 245.081 58.536C245.209 58.536 245.369 58.44 245.561 58.248ZM246.041 61.8C245.849 61.992 245.753 62.056 245.753 61.992C245.753 61.992 245.753 62.088 245.753 62.28C246.009 62.152 246.137 62.088 246.137 62.088C246.137 62.024 246.105 61.992 246.041 61.992C246.041 61.928 246.041 61.864 246.041 61.8ZM283.001 62.76V62.184C282.937 62.248 282.873 62.28 282.809 62.28C282.809 62.28 282.777 62.312 282.713 62.376C282.649 62.376 282.617 62.44 282.617 62.568V62.664C282.745 62.728 282.873 62.76 283.001 62.76ZM309.722 14.472C311.258 13.704 312.698 12.968 314.042 12.264C315.45 11.496 316.89 10.664 318.362 9.768C318.426 9.832 318.458 9.928 318.458 10.056C318.522 10.12 318.618 10.184 318.746 10.248C318.49 10.568 318.266 10.92 318.074 11.304C317.882 11.624 317.626 11.944 317.306 12.264C317.818 12.52 318.266 12.584 318.65 12.456C319.034 12.264 319.418 12.072 319.802 11.88C321.21 10.984 322.586 10.248 323.93 9.672C325.338 9.096 326.874 8.872 328.538 8.99999C328.922 9.064 329.21 9.032 329.402 8.904C329.594 8.776 329.754 8.616 329.882 8.424C330.074 8.168 330.234 7.944 330.362 7.752C330.554 7.496 330.778 7.272 331.034 7.08C335.386 6.696 339.45 7.56 343.226 9.672C345.21 10.76 346.842 12.072 348.122 13.608C349.402 15.08 350.33 16.712 350.906 18.504C351.546 20.232 351.77 22.088 351.578 24.072C351.45 25.992 350.938 27.944 350.042 29.928C349.082 31.976 347.93 33.832 346.586 35.496C345.306 37.16 343.834 38.76 342.17 40.296C341.658 40.808 341.178 41.288 340.73 41.736C340.282 42.12 339.802 42.568 339.29 43.08C339.61 43.784 340.026 44.296 340.538 44.616C341.05 44.872 341.562 45.128 342.074 45.384C346.362 48.072 349.434 51.816 351.29 56.616C353.082 61.8 352.474 66.664 349.466 71.208C347.802 73.896 345.722 76.04 343.226 77.64C340.794 79.176 338.042 80.296 334.97 81C331.898 81.64 328.826 81.896 325.754 81.768C322.682 81.704 319.546 81.384 316.346 80.808C316.026 80.744 315.706 80.68 315.386 80.616C315.066 80.552 314.746 80.488 314.426 80.424C314.298 80.424 314.17 80.456 314.042 80.52C313.914 80.52 313.722 80.52 313.466 80.52C313.338 80.84 313.178 81.16 312.986 81.48C312.858 81.864 312.698 82.216 312.506 82.536C311.098 85.544 308.698 86.856 305.306 86.472C303.898 86.28 302.682 85.736 301.658 84.84C300.698 84.008 300.058 82.856 299.738 81.384C299.482 80.616 299.322 79.88 299.258 79.176C299.194 78.408 299.13 77.608 299.066 76.776C298.874 72.104 298.65 67.464 298.394 62.856C298.202 58.184 298.01 53.448 297.818 48.648C297.69 45.64 297.594 42.664 297.53 39.72C297.466 36.712 297.274 33.704 296.954 30.696C296.826 28.392 296.666 26.088 296.474 23.784C296.282 21.48 296.058 19.208 295.802 16.968C295.738 16.584 295.674 16.2 295.61 15.816C295.61 15.368 295.61 14.952 295.61 14.568C295.61 11.176 297.274 8.99999 300.602 8.04C302.01 7.656 303.418 7.752 304.826 8.328C306.234 8.904 307.322 9.864 308.09 11.208C308.41 11.72 308.698 12.232 308.954 12.744C309.21 13.256 309.466 13.832 309.722 14.472ZM337.754 50.376C337.434 50.248 337.146 50.12 336.89 49.992C336.634 49.8 336.314 49.704 335.93 49.704C335.802 49.704 335.642 49.8 335.45 49.992C335.258 50.184 335.034 50.344 334.778 50.472C335.482 50.792 336.058 50.92 336.506 50.856C336.954 50.792 337.402 50.6 337.85 50.28C338.298 50.792 338.81 51.272 339.386 51.72C339.962 52.104 340.506 52.552 341.018 53.064C341.146 53.192 341.21 53.288 341.21 53.352C341.274 53.352 341.242 53.32 341.114 53.256C341.306 53.32 341.338 53.352 341.21 53.352C341.146 53.288 341.05 53.224 340.922 53.16C340.794 52.072 340.538 51.4 340.154 51.144C339.834 50.824 339.034 50.568 337.754 50.376ZM312.314 54.504C312.058 55.784 311.962 57.032 312.026 58.248C312.154 59.464 312.218 60.712 312.218 61.992C312.218 62.824 312.378 63.496 312.698 64.008C313.082 64.52 313.626 65 314.33 65.448C317.402 67.624 320.538 68.84 323.738 69.096C326.938 69.352 330.266 68.936 333.722 67.848C334.234 67.72 334.746 67.496 335.258 67.176C335.77 66.792 336.282 66.344 336.794 65.832C338.778 64.04 339.13 61.96 337.85 59.592C337.402 58.696 336.826 57.96 336.122 57.384C335.482 56.808 334.746 56.296 333.914 55.848C332.698 55.144 331.482 54.632 330.266 54.312C329.05 53.928 327.802 53.672 326.522 53.544C324.09 53.16 321.722 53.128 319.418 53.448C317.178 53.704 314.81 54.056 312.314 54.504ZM311.834 41.064C312.154 40.936 312.474 40.872 312.794 40.872C313.114 40.808 313.402 40.712 313.658 40.584C315.706 39.88 317.658 39.176 319.514 38.472C321.434 37.704 323.354 36.936 325.274 36.168C328.026 34.952 330.458 33.256 332.57 31.08C334.618 29.352 336.186 27.336 337.274 25.032C338.298 22.856 337.722 21.32 335.546 20.424C334.522 20.04 333.434 19.848 332.282 19.848C331.194 19.784 330.106 19.88 329.018 20.136C325.434 20.84 322.234 22.152 319.418 24.072C316.666 25.992 314.234 28.36 312.122 31.176C311.93 31.56 311.706 31.976 311.45 32.424C311.194 32.808 311.066 33.224 311.066 33.672C311.002 34.888 311.002 36.104 311.066 37.32C311.194 38.472 311.45 39.72 311.834 41.064ZM308.09 56.424C308.282 55.208 308.378 54.376 308.378 53.928C308.506 52.392 308.378 50.856 307.994 49.32C307.61 47.72 307.45 46.12 307.514 44.52C307.514 44.456 307.45 44.392 307.322 44.328C307.258 44.2 307.194 44.072 307.13 43.944C305.978 43.752 305.37 44.232 305.306 45.384C305.242 46.6 305.338 47.816 305.594 49.032C305.85 50.184 306.042 51.368 306.17 52.584C306.234 53.288 306.394 53.928 306.65 54.504C306.906 55.016 307.386 55.656 308.09 56.424ZM335.258 35.496C335.578 35.432 335.866 35.432 336.122 35.496C336.378 35.496 336.57 35.432 336.698 35.304C337.338 34.856 338.042 34.28 338.81 33.576C339.578 32.808 340.25 32.008 340.826 31.176C341.402 30.344 341.818 29.512 342.074 28.68C342.33 27.784 342.33 26.952 342.074 26.184C340.986 27.848 339.866 29.416 338.714 30.888C337.562 32.296 336.41 33.832 335.258 35.496ZM344.378 66.6C343.546 67.432 342.906 68.072 342.458 68.52C342.01 68.968 341.658 69.352 341.402 69.672C341.21 69.992 341.05 70.28 340.922 70.536C340.858 70.792 340.794 71.144 340.73 71.592C341.498 70.952 342.202 70.312 342.842 69.672C343.546 68.968 344.058 67.944 344.378 66.6ZM304.922 39.144C304.858 39.848 304.794 40.488 304.73 41.064C304.666 41.64 305.082 42.184 305.978 42.696C306.17 42.056 306.362 41.544 306.554 41.16C306.746 40.712 306.842 40.36 306.842 40.104C306.906 39.848 306.778 39.656 306.458 39.528C306.202 39.4 305.69 39.272 304.922 39.144ZM336.698 76.008C335.482 76.136 334.746 76.296 334.49 76.488C334.298 76.616 334.426 76.904 334.874 77.352C335.194 77.096 335.482 76.872 335.738 76.68C335.994 76.424 336.314 76.2 336.698 76.008ZM325.754 46.056C324.858 46.056 324.282 46.152 324.026 46.344C323.77 46.472 323.354 46.984 322.778 47.88C323.354 47.56 323.866 47.272 324.314 47.016C324.762 46.696 325.242 46.376 325.754 46.056ZM305.306 32.808C305.05 33.256 304.858 33.576 304.73 33.768C304.602 33.896 304.538 34.024 304.538 34.152C304.474 34.28 304.474 34.44 304.538 34.632C304.602 34.824 304.634 35.016 304.634 35.208C304.762 35.08 304.89 34.952 305.018 34.824C305.21 34.696 305.37 34.568 305.498 34.44C305.626 34.312 305.626 34.152 305.498 33.96C305.434 33.768 305.37 33.384 305.306 32.808ZM331.898 8.04C332.346 8.808 332.666 9.256 332.858 9.384C333.05 9.44799 333.562 9.352 334.394 9.096C333.946 8.904 333.53 8.744 333.146 8.616C332.762 8.488 332.346 8.296 331.898 8.04ZM306.458 26.184C305.818 25.928 305.37 25.768 305.114 25.704C304.858 25.64 304.634 25.544 304.442 25.416C304.442 25.416 304.346 25.512 304.154 25.704C304.09 25.768 304.058 25.832 304.058 25.896C304.25 26.024 304.41 26.152 304.538 26.28C304.666 26.408 304.794 26.504 304.922 26.568C305.05 26.696 305.21 26.696 305.402 26.568C305.594 26.44 305.946 26.312 306.458 26.184ZM308.186 58.248C308.058 57.992 307.93 57.768 307.802 57.576C307.674 57.704 307.578 57.832 307.514 57.96C307.514 58.088 307.45 58.184 307.322 58.248C307.45 58.312 307.514 58.376 307.514 58.44C307.578 58.504 307.642 58.536 307.706 58.536C307.834 58.536 307.994 58.44 308.186 58.248ZM308.666 61.8C308.474 61.992 308.378 62.056 308.378 61.992C308.378 61.992 308.378 62.088 308.378 62.28C308.634 62.152 308.762 62.088 308.762 62.088C308.762 62.024 308.73 61.992 308.666 61.992C308.666 61.928 308.666 61.864 308.666 61.8ZM345.626 62.76V62.184C345.562 62.248 345.498 62.28 345.434 62.28C345.434 62.28 345.402 62.312 345.338 62.376C345.274 62.376 345.242 62.44 345.242 62.568V62.664C345.37 62.728 345.498 62.76 345.626 62.76ZM388.955 56.424C389.275 56.744 389.531 57.032 389.723 57.288C389.915 57.544 390.075 57.736 390.203 57.864C392.379 59.976 394.747 61.704 397.307 63.048C399.867 64.392 402.587 65.512 405.467 66.408C406.043 66.536 406.619 66.632 407.195 66.696C407.771 66.696 408.315 66.728 408.827 66.792C410.235 66.984 411.419 67.496 412.379 68.328C413.403 69.096 414.075 70.12 414.395 71.4C414.779 72.808 414.683 74.184 414.107 75.528C413.531 76.808 412.603 77.8 411.323 78.504C409.275 79.72 407.099 80.104 404.795 79.656C397.243 78.056 390.331 74.92 384.059 70.248C383.227 69.608 382.427 68.968 381.659 68.328C380.891 67.688 380.155 67.016 379.451 66.312C379.195 66.056 378.907 65.864 378.587 65.736C378.267 65.544 377.883 65.288 377.435 64.968C377.307 65.48 377.211 65.896 377.147 66.216C377.083 66.536 377.083 66.856 377.147 67.176C377.275 68.904 377.435 70.632 377.627 72.36C377.883 74.088 378.075 75.784 378.203 77.448C378.267 77.96 378.299 78.472 378.299 78.984C378.299 79.496 378.299 79.976 378.299 80.424C378.171 82.024 377.627 83.368 376.667 84.456C375.707 85.608 374.491 86.344 373.019 86.664C371.355 86.92 369.851 86.696 368.507 85.992C367.163 85.352 366.139 84.296 365.435 82.824C364.987 81.992 364.731 81.064 364.667 80.04C364.283 76.008 363.899 72.008 363.515 68.04C363.195 64.072 362.875 60.072 362.555 56.04C362.107 51.56 361.691 47.112 361.307 42.696C360.923 38.216 360.507 33.768 360.059 29.352C359.739 25.96 359.451 22.568 359.195 19.176C358.939 15.784 358.651 12.36 358.331 8.904C358.203 7.752 358.299 6.664 358.619 5.64C358.939 4.552 359.579 3.56 360.539 2.664C361.499 1.89599 362.523 1.44799 363.611 1.32C364.763 1.12799 365.851 1.19199 366.875 1.51199C367.899 1.76799 368.827 2.27999 369.659 3.048C370.491 3.816 371.099 4.776 371.483 5.92799C371.675 6.632 371.803 7.336 371.867 8.04C371.995 8.744 372.123 9.448 372.251 10.152C372.379 10.664 372.443 11.144 372.443 11.592C372.507 12.04 372.571 12.456 372.635 12.84C373.467 12.968 374.075 12.84 374.459 12.456C374.843 12.072 375.259 11.688 375.707 11.304C377.691 9.896 379.707 8.712 381.755 7.752C383.867 6.792 386.107 6.088 388.475 5.64C393.723 4.68 398.779 5.128 403.643 6.984C403.963 7.048 404.251 7.272 404.507 7.65599C403.931 7.65599 403.355 7.592 402.779 7.464C402.203 7.272 401.595 7.144 400.955 7.08C400.379 7.016 399.771 7.048 399.131 7.17599C398.555 7.24 397.947 7.528 397.307 8.04C397.755 8.232 398.075 8.392 398.267 8.51999C398.523 8.648 398.747 8.744 398.939 8.808C399.835 9.064 400.667 9.256 401.435 9.384C402.267 9.512 403.131 9.576 404.027 9.576C405.243 9.576 406.331 9.832 407.291 10.344C408.315 10.856 409.435 11.144 410.651 11.208C411.035 11.208 411.483 11.432 411.995 11.88C412.507 12.328 412.891 12.776 413.147 13.224C414.747 15.464 416.091 17.768 417.179 20.136C417.755 21.032 418.171 22.056 418.427 23.208C418.747 24.296 418.971 25.384 419.099 26.472C419.547 29.672 419.355 32.84 418.523 35.976C417.755 39.112 416.475 41.992 414.683 44.616C412.891 47.176 410.651 49.384 407.963 51.24C405.339 53.096 402.427 54.344 399.227 54.984C398.075 55.304 396.859 55.528 395.579 55.656C394.363 55.72 393.147 55.848 391.931 56.04C391.163 56.04 390.171 56.168 388.955 56.424ZM364.187 31.368C364.187 31.816 364.219 32.136 364.283 32.328C364.411 32.2 364.539 32.136 364.667 32.136C364.859 32.072 364.955 31.976 364.955 31.848C365.019 31.72 364.987 31.592 364.859 31.464C364.795 31.272 364.731 31.112 364.667 30.984C365.371 30.024 365.371 28.936 364.667 27.72C364.155 28.424 363.899 29.064 363.899 29.64C363.899 30.152 363.995 30.728 364.187 31.368ZM408.155 14.952C408.027 14.504 407.835 14.152 407.579 13.896C407.387 13.576 407.035 13.416 406.523 13.416C406.587 14.312 407.035 14.952 407.867 15.336C408.315 15.656 408.699 16.136 409.019 16.776C409.403 17.352 410.011 17.576 410.843 17.448C410.779 16.488 410.491 15.88 409.979 15.624C409.531 15.304 408.923 15.08 408.155 14.952ZM366.395 56.04C366.843 53.928 366.939 52.232 366.683 50.952C366.491 49.608 365.947 48.456 365.051 47.496C364.603 48.776 364.411 50.024 364.475 51.24C364.603 52.456 364.763 53.672 364.955 54.888C365.019 55.144 365.147 55.4 365.339 55.656C365.595 55.912 365.819 56.168 366.011 56.424C365.627 57.384 365.403 58.376 365.339 59.4C365.275 60.424 365.563 61.448 366.203 62.472C366.523 62.856 366.651 63.24 366.587 63.624C366.587 64.008 366.523 64.456 366.395 64.968C366.267 65.288 366.171 65.704 366.107 66.216C366.107 66.728 366.171 67.016 366.299 67.08C367.067 67.528 367.579 68.104 367.835 68.808C368.155 69.448 368.603 70.216 369.179 71.112C369.179 70.6 369.211 70.184 369.275 69.864C369.339 69.544 369.307 69.288 369.179 69.096C369.051 68.584 368.923 68.072 368.795 67.56C368.667 66.984 368.539 66.408 368.411 65.832C368.347 65.64 368.219 65.416 368.027 65.16C367.899 64.904 367.835 64.68 367.835 64.488C367.963 62.952 367.867 61.512 367.547 60.168C367.291 58.76 366.907 57.384 366.395 56.04ZM405.563 29.736C405.563 29.544 405.563 29.288 405.563 28.968C405.563 28.648 405.499 28.232 405.371 27.72C405.051 25.928 404.475 24.296 403.643 22.824C402.875 21.288 401.563 20.104 399.707 19.272C397.787 18.504 395.803 18.088 393.755 18.024C391.707 17.96 389.723 18.376 387.803 19.272C384.795 20.68 382.491 22.312 380.891 24.168C379.291 26.024 378.267 27.912 377.819 29.832C377.435 31.752 377.563 33.608 378.203 35.4C378.843 37.192 379.931 38.728 381.467 40.008C383.003 41.288 384.923 42.216 387.227 42.792C389.595 43.368 392.251 43.368 395.195 42.792C396.667 42.536 398.011 41.992 399.227 41.16C400.507 40.328 401.595 39.336 402.491 38.184C403.451 37.032 404.187 35.752 404.699 34.344C405.275 32.872 405.563 31.336 405.563 29.736ZM394.043 66.6C395.323 68.2 396.539 69.288 397.691 69.864C398.843 70.44 400.027 70.664 401.243 70.536C401.243 70.216 401.211 70.056 401.147 70.056C399.931 69.48 398.747 68.936 397.595 68.424C396.443 67.848 395.259 67.24 394.043 66.6ZM366.395 18.984C364.923 18.984 364.219 19.56 364.283 20.712C364.283 21.416 364.411 21.896 364.667 22.152C364.987 22.408 365.563 22.6 366.395 22.728V18.984ZM395.099 8.616C394.971 8.36 394.779 8.168 394.523 8.04C393.115 8.04 392.027 8.552 391.259 9.576C392.667 10.664 393.595 10.792 394.043 9.96C393.851 9.576 393.787 9.352 393.851 9.288C393.915 9.16 394.043 9.096 394.235 9.096C394.427 9.032 394.619 8.99999 394.811 8.99999C395.003 8.936 395.099 8.808 395.099 8.616ZM364.571 42.984C364.443 44.072 364.411 44.744 364.475 45C364.603 45.192 365.083 45.352 365.915 45.48C366.299 44.264 365.851 43.432 364.571 42.984ZM388.475 9.96C387.643 9.64 387.003 9.57599 386.555 9.768C386.171 9.896 385.755 10.248 385.307 10.824C386.395 11.144 387.451 10.856 388.475 9.96ZM364.283 15.624C364.731 15.816 365.083 16.008 365.339 16.2C365.595 16.392 365.915 16.616 366.299 16.872V13.32C365.915 13.768 365.595 14.152 365.339 14.472C365.083 14.792 364.731 15.176 364.283 15.624ZM365.147 23.784C364.635 24.168 364.379 24.392 364.379 24.456C364.379 24.648 364.411 24.84 364.475 25.032C364.603 25.224 364.699 25.416 364.763 25.608C364.955 25.48 365.147 25.384 365.339 25.32C365.531 25.192 365.627 25.064 365.627 24.936C365.755 24.808 365.723 24.648 365.531 24.456C365.403 24.264 365.275 24.04 365.147 23.784ZM364.955 33.288C364.635 33.864 364.411 34.248 364.283 34.44C364.219 34.568 364.219 34.696 364.283 34.824C364.283 34.952 364.315 35.112 364.379 35.304C364.507 35.432 364.603 35.56 364.667 35.688C364.731 35.688 364.795 35.688 364.859 35.688C364.987 35.624 365.083 35.592 365.147 35.592C365.083 35.272 365.051 34.984 365.051 34.728C365.051 34.472 365.019 33.992 364.955 33.288ZM365.051 38.376C364.987 38.312 364.955 38.248 364.955 38.184C364.955 38.12 364.891 38.056 364.763 37.992C364.443 38.184 364.283 38.28 364.283 38.28C364.283 38.408 364.315 38.504 364.379 38.568C364.507 38.568 364.603 38.632 364.667 38.76L365.051 38.376ZM457.167 63.528C456.335 63.4 455.663 63.272 455.151 63.144C454.703 63.016 454.255 62.952 453.807 62.952C451.695 62.888 449.647 62.888 447.663 62.952C445.679 62.952 443.663 62.952 441.615 62.952H440.751C439.919 63.08 439.343 63.336 439.023 63.72C438.767 64.04 438.671 64.552 438.735 65.256C438.927 67.048 439.215 68.808 439.599 70.536C439.727 71.048 439.823 71.56 439.887 72.072C440.015 72.52 440.143 73 440.271 73.512C440.591 75.368 440.303 77.032 439.407 78.504C438.575 79.912 437.327 80.84 435.663 81.288C433.999 81.8 432.335 81.704 430.671 81C429.071 80.296 427.919 79.048 427.215 77.256C426.895 76.36 426.639 75.464 426.447 74.568C426.255 73.608 426.095 72.616 425.967 71.592C425.007 65.064 424.655 58.6 424.911 52.2C425.231 45.8 426.447 39.432 428.559 33.096C429.135 31.176 429.839 29.32 430.671 27.528C431.503 25.672 432.463 23.912 433.551 22.248C434.511 20.648 435.567 19.24 436.719 18.024C437.935 16.808 439.279 15.656 440.751 14.568C446.319 10.792 452.175 10.6 458.319 13.992C460.239 15.08 461.871 16.392 463.215 17.928C464.623 19.4 465.871 21.128 466.959 23.112C468.239 25.736 469.231 28.424 469.935 31.176C470.639 33.864 471.119 36.648 471.375 39.528C471.695 42.984 471.791 46.44 471.663 49.896C471.599 53.288 471.407 56.712 471.087 60.168C470.959 62.536 470.799 64.904 470.607 67.272C470.479 69.64 470.319 71.944 470.127 74.184C470.063 75.848 469.871 77.544 469.551 79.272C469.231 80.936 468.463 82.248 467.247 83.208C466.095 84.168 464.687 84.648 463.023 84.648C461.167 84.648 459.631 84.104 458.415 83.016C457.199 81.992 456.527 80.616 456.399 78.888C456.335 77.416 456.367 75.944 456.495 74.472C456.623 72.936 456.751 71.4 456.879 69.864C456.943 68.84 456.975 67.816 456.975 66.792C457.039 65.768 457.103 64.68 457.167 63.528ZM457.743 49.896C457.871 49.384 457.967 48.904 458.031 48.456C458.159 47.944 458.191 47.496 458.127 47.112C458.063 45.832 457.999 44.552 457.935 43.272C457.871 41.928 457.775 40.616 457.647 39.336C457.391 37.672 457.071 36.008 456.687 34.344C456.367 32.68 455.791 31.112 454.959 29.64C454.575 28.936 454.095 28.2 453.519 27.432C453.007 26.664 452.463 25.992 451.887 25.416C451.247 24.776 450.639 24.488 450.063 24.552C449.551 24.616 448.975 24.904 448.335 25.416C447.375 26.12 446.543 26.92 445.839 27.816C445.199 28.712 444.591 29.672 444.015 30.696C442.735 33.192 441.711 35.784 440.943 38.472C440.239 41.16 439.631 43.912 439.119 46.728C439.055 47.24 439.023 47.752 439.023 48.264C439.023 48.776 438.991 49.288 438.927 49.8C441.807 49.928 444.623 50.024 447.375 50.088C450.127 50.152 452.847 50.248 455.535 50.376C455.919 50.376 456.271 50.344 456.591 50.28C456.911 50.152 457.295 50.024 457.743 49.896ZM426.447 62.856H427.119C427.631 61.832 427.823 60.776 427.695 59.688C427.631 58.6 427.631 57.512 427.695 56.424C427.759 55.336 427.759 54.216 427.695 53.064C427.695 51.912 427.695 50.6 427.695 49.128C427.311 50.216 427.023 51.272 426.831 52.296C426.703 53.256 426.607 54.216 426.543 55.176C426.479 56.136 426.415 57.064 426.351 57.96C426.351 58.856 426.255 59.72 426.063 60.552C425.999 61 425.999 61.416 426.063 61.8C426.191 62.12 426.319 62.472 426.447 62.856ZM427.791 47.784C428.175 47.464 428.431 47.208 428.559 47.016C428.751 46.824 428.847 46.632 428.847 46.44C428.911 46.184 428.879 45.864 428.751 45.48C428.623 45.096 428.431 44.584 428.175 43.944C427.983 44.648 427.727 45.288 427.407 45.864C427.151 46.44 427.279 47.08 427.791 47.784ZM427.215 69.672C427.407 68.648 427.503 67.752 427.503 66.984C427.567 66.152 427.375 65.224 426.927 64.2C426.671 65.288 426.511 66.216 426.447 66.984C426.447 67.752 426.703 68.648 427.215 69.672ZM468.111 48.648C467.791 48.456 467.535 48.264 467.343 48.072C467.215 47.816 467.087 47.656 466.959 47.592C466.511 47.528 466.255 47.624 466.191 47.88C466.127 48.072 466.095 48.328 466.095 48.648C466.159 48.968 466.223 49.256 466.287 49.512C466.415 49.704 466.703 49.768 467.151 49.704C467.279 49.576 467.375 49.416 467.439 49.224C467.567 49.032 467.791 48.84 468.111 48.648ZM467.055 40.68H467.631C467.567 40.36 467.535 40.04 467.535 39.72C467.535 39.336 467.535 38.92 467.535 38.472H467.055V40.68ZM429.039 41.544H429.423V40.2H429.039V41.544ZM428.175 72.072C428.047 71.944 427.951 71.816 427.887 71.688C427.887 71.56 427.855 71.432 427.791 71.304C427.471 71.496 427.311 71.592 427.311 71.592C427.439 71.848 427.535 72.072 427.599 72.264C427.663 72.392 427.727 72.552 427.791 72.744C427.855 72.488 427.983 72.264 428.175 72.072ZM564.657 31.848C564.593 31.08 564.401 30.44 564.081 29.928C563.761 29.416 563.249 28.84 562.545 28.2C562.033 29.032 561.713 29.864 561.585 30.696C561.521 31.464 561.489 32.232 561.489 33C561.489 35.048 561.361 37.064 561.105 39.048C560.849 40.968 560.529 42.952 560.145 45C559.953 45.96 559.793 46.984 559.665 48.072C559.601 49.096 559.441 50.152 559.185 51.24C558.865 52.712 558.481 54.152 558.033 55.56C557.649 56.968 557.201 58.408 556.689 59.88C556.497 60.2 556.369 60.68 556.305 61.32C556.945 61.704 557.713 61.992 558.609 62.184C559.121 61.352 559.633 60.584 560.145 59.88C560.657 59.112 560.977 58.216 561.105 57.192C561.233 56.232 561.425 55.368 561.681 54.6C562.001 53.768 562.225 52.904 562.353 52.008C562.417 51.496 562.545 50.952 562.737 50.376C562.929 49.736 562.641 49.16 561.873 48.648C561.553 48.456 561.489 48.104 561.681 47.592C561.873 47.08 562.385 46.76 563.217 46.632C563.281 47.016 563.345 47.368 563.409 47.688C563.473 48.008 563.473 48.328 563.409 48.648C562.961 52.872 562.481 57.032 561.969 61.128C561.521 65.224 560.689 69.288 559.473 73.32C559.217 74.024 558.961 74.728 558.705 75.432C558.513 76.072 558.257 76.712 557.937 77.352C557.169 79.08 556.145 80.36 554.865 81.192C553.649 82.024 552.369 82.504 551.025 82.632C549.681 82.824 548.369 82.664 547.089 82.152C545.809 81.704 544.689 81 543.729 80.04C542.833 79.144 541.969 78.216 541.137 77.256C540.305 76.232 539.537 75.176 538.833 74.088C537.745 72.424 536.721 70.728 535.761 69C534.801 67.208 533.841 65.416 532.881 63.624C531.857 61.576 530.833 59.496 529.809 57.384C528.849 55.208 527.825 53.096 526.737 51.048C526.545 50.472 526.289 49.96 525.969 49.512C525.713 49 525.425 48.392 525.105 47.688C524.785 48.2 524.497 48.648 524.241 49.032C523.985 49.352 523.793 49.704 523.665 50.088C522.769 52.136 521.905 54.184 521.073 56.232C520.241 58.216 519.345 60.2 518.385 62.184C517.553 64.04 516.657 65.896 515.697 67.752C514.801 69.608 513.873 71.432 512.913 73.224C511.313 75.592 509.521 77.864 507.537 80.04C506.769 80.936 505.873 81.608 504.849 82.056C503.889 82.568 502.865 82.952 501.777 83.208C499.537 83.592 497.489 83.4 495.633 82.632C493.777 81.928 492.305 80.584 491.217 78.6C490.513 77.448 489.873 76.264 489.297 75.048C488.785 73.768 488.369 72.488 488.049 71.208C487.153 67.88 486.321 64.552 485.553 61.224C484.785 57.832 484.049 54.472 483.345 51.144C482.449 46.728 481.649 42.376 480.945 38.088C480.305 33.736 479.633 29.352 478.929 24.936C478.481 22.312 478.065 19.72 477.681 17.16C477.361 14.6 477.009 12.008 476.625 9.384C476.561 9 476.529 8.648 476.529 8.328C476.529 8.008 476.529 7.688 476.529 7.368C476.593 5.704 477.105 4.296 478.065 3.144C479.089 1.99199 480.369 1.32 481.905 1.128C483.633 0.743996 485.169 0.903996 486.513 1.608C487.857 2.248 488.881 3.336 489.585 4.872C489.777 5.384 489.905 5.896 489.969 6.408C490.097 6.92 490.225 7.368 490.353 7.752C490.929 11.72 491.441 15.688 491.889 19.656C492.337 23.624 492.913 27.528 493.617 31.368C494.641 36.616 495.665 41.864 496.689 47.112C497.713 52.36 498.769 57.64 499.857 62.952C499.985 63.336 500.145 63.752 500.337 64.2C500.529 64.648 500.689 65.096 500.817 65.544C501.585 65.416 502.065 65.16 502.257 64.776C502.513 64.328 502.737 63.848 502.929 63.336C503.633 61.672 504.401 60.04 505.233 58.44C506.065 56.776 506.833 55.08 507.537 53.352C508.817 50.152 510.129 47.016 511.473 43.944C512.817 40.808 514.097 37.672 515.313 34.536C516.017 32.68 516.977 31.24 518.193 30.216C519.409 29.128 520.881 28.264 522.609 27.624C525.681 26.792 528.305 27.56 530.481 29.928C531.377 30.824 532.145 31.912 532.785 33.192C533.873 35.24 534.961 37.32 536.049 39.432C537.137 41.544 538.225 43.656 539.313 45.768C540.465 47.944 541.553 50.184 542.577 52.488C543.665 54.792 544.753 57.064 545.841 59.304C545.969 59.624 546.193 60.008 546.513 60.456C546.833 60.84 547.153 61.352 547.473 61.992C547.665 61.48 547.825 61.096 547.953 60.84C548.145 60.52 548.241 60.2 548.241 59.88C548.561 56.872 548.881 53.896 549.201 50.952C549.585 48.008 549.937 45 550.257 41.928C550.577 38.088 550.897 34.216 551.217 30.312C551.537 26.408 551.889 22.536 552.273 18.696C552.401 17.032 552.497 15.368 552.561 13.704C552.625 11.976 552.785 10.248 553.041 8.51999C553.361 6.72799 554.097 5.352 555.249 4.392C556.465 3.432 558.001 2.952 559.857 2.952C561.713 3.08 563.217 3.72 564.369 4.872C565.521 6.024 566.129 7.56 566.193 9.47999C566.257 11.144 566.225 12.808 566.097 14.472C566.033 16.072 565.937 17.736 565.809 19.464C565.617 21.576 565.393 23.656 565.137 25.704C564.945 27.688 564.785 29.736 564.657 31.848ZM515.985 47.784C517.009 46.568 517.777 45.288 518.289 43.944C518.801 42.536 518.897 40.968 518.577 39.24C517.873 39.688 517.457 40.168 517.329 40.68C517.201 41.128 517.073 41.608 516.945 42.12C516.817 43.016 516.497 43.944 515.985 44.904C515.537 45.864 515.537 46.856 515.985 47.88C515.729 48.008 515.569 48.136 515.505 48.264C515.441 48.264 515.409 48.296 515.409 48.36V48.552H515.601C515.665 48.552 515.697 48.52 515.697 48.456C515.825 48.072 515.921 47.848 515.985 47.784ZM531.537 50.856C532.177 51.752 532.785 52.712 533.361 53.736C533.937 54.76 534.513 55.816 535.089 56.904C535.281 57.032 535.473 57.192 535.665 57.384C535.921 57.576 536.113 57.768 536.241 57.96C536.305 57.832 536.401 57.704 536.529 57.576C536.401 57.384 536.273 57.224 536.145 57.096C536.017 56.904 535.889 56.68 535.761 56.424C535.377 54.824 534.801 53.352 534.033 52.008C533.265 50.6 532.465 49.192 531.633 47.784C531.505 47.528 531.153 47.24 530.577 46.92C530.705 47.688 530.801 48.328 530.865 48.84C530.993 49.288 531.121 49.768 531.249 50.28C530.865 49.704 530.353 49.096 529.713 48.456C529.457 49.416 529.521 50.216 529.905 50.856C530.353 51.432 530.833 52.008 531.345 52.584C531.409 52.264 531.441 51.976 531.441 51.72C531.505 51.464 531.537 51.176 531.537 50.856ZM488.529 32.328C488.593 31.624 488.625 31.048 488.625 30.6C488.689 30.152 488.689 29.768 488.625 29.448C488.561 29.064 488.433 28.744 488.241 28.488C488.113 28.168 487.921 27.784 487.665 27.336C487.793 28.424 487.793 29.384 487.665 30.216C487.601 30.984 487.857 31.72 488.433 32.424C487.281 35.752 487.569 39.048 489.297 42.312C489.425 42.568 489.489 42.824 489.489 43.08C489.553 43.272 489.649 43.496 489.777 43.752C489.137 44.456 488.785 45.192 488.721 45.96C488.721 46.728 488.785 47.464 488.913 48.168C489.233 50.024 489.521 51.848 489.777 53.64C490.097 55.368 490.449 57.16 490.833 59.016C491.025 59.72 491.249 60.456 491.505 61.224C491.825 61.928 492.145 62.632 492.465 63.336C492.465 63.4 492.529 63.464 492.657 63.528C492.785 63.528 492.913 63.56 493.041 63.624C493.233 63.496 493.457 63.368 493.713 63.24C493.969 63.112 494.225 62.984 494.481 62.856C494.225 61.704 493.937 60.584 493.617 59.496C493.361 58.408 493.105 57.352 492.849 56.328C492.721 55.88 492.497 55.464 492.177 55.08C491.857 54.696 491.729 54.344 491.793 54.024C491.921 53.192 491.857 52.424 491.601 51.72C491.409 51.016 491.377 50.248 491.505 49.416C491.505 47.496 490.961 45.64 489.873 43.848C490.001 43.656 490.129 43.496 490.257 43.368C490.385 43.176 490.449 43.016 490.449 42.888C490.385 42.184 490.321 41.48 490.257 40.776C490.257 40.072 490.129 39.336 489.873 38.568C489.617 37.608 489.489 36.584 489.489 35.496C489.489 34.408 489.169 33.352 488.529 32.328ZM562.257 21.288C562.001 22.568 561.841 23.72 561.777 24.744C561.777 25.768 562.033 26.92 562.545 28.2C563.249 27.112 563.633 26.12 563.697 25.224C563.761 24.328 563.729 23.464 563.601 22.632C563.601 22.44 563.153 21.992 562.257 21.288ZM513.681 52.776C514.385 52.2 514.769 51.816 514.833 51.624C514.961 51.432 515.057 51.08 515.121 50.568C515.121 50.44 515.057 50.344 514.929 50.28C514.801 50.216 514.673 50.12 514.545 49.992C514.417 50.504 514.289 50.952 514.161 51.336C514.097 51.72 513.937 52.2 513.681 52.776ZM532.785 56.904C532.913 56.84 533.009 56.776 533.073 56.712C533.201 56.584 533.329 56.488 533.457 56.424C533.329 56.168 533.137 55.944 532.881 55.752C532.689 55.496 532.497 55.24 532.305 54.984C532.241 55.048 532.177 55.112 532.113 55.176C532.049 55.176 531.985 55.208 531.921 55.272C532.049 55.592 532.177 55.88 532.305 56.136C532.433 56.392 532.593 56.648 532.785 56.904ZM535.377 59.784C535.121 59.912 534.929 60.104 534.801 60.36C535.441 60.68 535.921 61 536.241 61.32C536.305 61.192 536.401 61.064 536.529 60.936C536.337 60.808 536.145 60.648 535.953 60.456C535.825 60.264 535.633 60.04 535.377 59.784ZM528.561 45.48C528.561 45.48 528.497 45.416 528.369 45.288C528.177 45.416 528.081 45.544 528.081 45.672C528.145 45.736 528.177 45.8 528.177 45.864C528.305 45.8 528.369 45.736 528.369 45.672C528.433 45.608 528.497 45.544 528.561 45.48ZM560.145 55.176L560.241 55.08L560.337 55.176H560.145ZM564.369 34.44C564.305 34.44 564.241 34.472 564.177 34.536C564.241 34.472 564.273 34.44 564.273 34.44C564.273 34.376 564.305 34.312 564.369 34.248V34.44ZM563.697 39.432V39.528C563.633 39.592 563.601 39.624 563.601 39.624C563.537 39.56 563.473 39.528 563.409 39.528V39.336C563.409 39.272 563.441 39.24 563.505 39.24C563.633 39.24 563.697 39.304 563.697 39.432ZM593.429 81.768C591.701 81.576 589.941 81.416 588.149 81.288C586.357 81.16 584.597 80.968 582.869 80.712C580.693 80.392 578.965 79.624 577.685 78.408C576.405 77.192 575.413 75.592 574.709 73.608C574.261 72.072 573.941 70.568 573.749 69.096C573.557 67.56 573.429 65.992 573.365 64.392C573.173 59.848 573.013 55.336 572.885 50.856C572.821 46.312 572.725 41.768 572.597 37.224C572.469 33.704 572.341 30.216 572.213 26.76C572.149 23.24 572.053 19.72 571.925 16.2C571.925 15.496 571.925 14.824 571.925 14.184C571.925 13.544 571.989 12.872 572.117 12.168C572.245 10.312 572.917 8.84 574.133 7.752C575.349 6.6 576.885 6.024 578.741 6.024C580.597 5.96 582.133 6.47199 583.349 7.56C584.629 8.648 585.365 10.12 585.557 11.976C585.621 12.424 585.653 12.872 585.653 13.32C585.653 13.704 585.653 14.12 585.653 14.568C586.037 30.952 586.517 47.496 587.093 64.2C587.093 65.224 587.125 66.056 587.189 66.696C587.317 67.272 587.509 67.72 587.765 68.04C588.085 68.296 588.533 68.488 589.109 68.616C589.749 68.744 590.581 68.84 591.605 68.904C596.533 69.096 601.205 68.584 605.621 67.368C606.325 67.24 607.029 67.144 607.733 67.08C608.437 66.952 609.173 66.92 609.941 66.984C611.157 67.048 612.181 67.432 613.013 68.136C613.845 68.776 614.485 69.64 614.933 70.728C615.829 73.096 615.477 75.208 613.877 77.064C613.173 77.896 612.373 78.536 611.477 78.984C610.645 79.432 609.685 79.784 608.597 80.04C603.797 81.192 598.741 81.768 593.429 81.768ZM606.005 74.76C606.005 74.184 605.973 73.896 605.909 73.896C605.653 73.64 605.365 73.512 605.045 73.512C604.533 73.576 604.053 73.672 603.605 73.8C603.157 73.864 602.677 73.864 602.165 73.8C600.437 73.672 598.677 73.768 596.885 74.088C595.157 74.344 593.397 74.568 591.605 74.76C591.477 74.76 591.061 75.112 590.357 75.816C591.189 76.008 591.701 76.104 591.893 76.104C594.325 75.848 596.693 75.624 598.997 75.432C601.365 75.176 603.701 74.952 606.005 74.76ZM582.389 50.376C582.645 49.096 582.805 47.88 582.869 46.728C582.933 45.576 582.709 44.36 582.197 43.08C581.941 44.36 581.781 45.576 581.717 46.728C581.653 47.88 581.877 49.096 582.389 50.376ZM582.197 53.064C582.261 53.96 582.293 54.76 582.293 55.464C582.357 56.168 582.421 56.84 582.485 57.48C582.549 57.608 582.645 57.768 582.773 57.96C582.901 58.152 583.093 58.44 583.349 58.824C583.413 57.672 583.445 56.68 583.445 55.848C583.445 55.016 583.029 54.088 582.197 53.064ZM582.197 37.224C582.197 37.16 582.197 37.128 582.197 37.128C582.261 37.128 582.293 37.096 582.293 37.032L582.389 36.936C582.325 36.808 582.261 36.712 582.197 36.648C582.197 36.584 582.165 36.488 582.101 36.36C582.101 36.488 582.101 36.648 582.101 36.84C582.165 36.968 582.197 37.096 582.197 37.224ZM582.197 32.904H582.389L582.293 32.712L582.197 32.904Z" fill="black"/>
</svg>
