<svg width="412" height="59" viewBox="0 0 412 59" fill="none" xmlns="http://www.w3.org/2000/svg">
<path d="M16.92 4.336C17.432 4.12267 17.9227 3.93067 18.392 3.76C18.904 3.54667 19.4373 3.48266 19.992 3.568C19.9493 3.78133 19.9067 3.97333 19.864 4.144C19.864 4.272 19.8427 4.44267 19.8 4.656C20.0133 4.69866 20.2267 4.74133 20.44 4.784C20.6533 4.82667 20.8667 4.82667 21.08 4.784C21.6773 4.69866 22.2533 4.592 22.808 4.464C23.4053 4.336 24.0027 4.22933 24.6 4.144C25.0693 4.05866 25.5387 4.016 26.008 4.016C26.52 3.97333 26.9893 3.99466 27.416 4.08C32.152 5.06133 35.736 7.62133 38.168 11.76C38.7653 12.6133 39.1707 13.5307 39.384 14.512C39.5973 15.4507 39.576 16.432 39.32 17.456C38.5947 19.5467 37.144 20.656 34.968 20.784C33.8587 20.784 32.8987 20.5067 32.088 19.952C31.32 19.3547 30.8293 18.5227 30.616 17.456C30.3173 15.9627 29.72 14.8533 28.824 14.128C27.928 13.36 26.8187 12.8267 25.496 12.528C24.3867 12.2293 23.2987 12.0587 22.232 12.016C21.1653 11.9307 20.0773 12.1653 18.968 12.72C17.432 13.4453 16.536 14.4267 16.28 15.664C16.024 16.9013 16.4507 18.16 17.56 19.44C18.6267 20.3787 19.736 21.232 20.888 22C22.2107 22.9387 23.512 23.8347 24.792 24.688C26.1147 25.4987 27.3947 26.3733 28.632 27.312C30.552 28.7627 32.216 30.3627 33.624 32.112C35.0747 33.8613 36.248 35.8667 37.144 38.128C37.8267 39.92 38.1467 41.648 38.104 43.312C38.0613 44.976 37.7413 46.5547 37.144 48.048C36.5893 49.5413 35.8 50.9067 34.776 52.144C33.7947 53.3387 32.664 54.3627 31.384 55.216C30.1467 56.112 28.824 56.7733 27.416 57.2C26.008 57.6693 24.6213 57.8613 23.256 57.776C23.4267 57.52 23.64 57.3067 23.896 57.136C24.152 57.008 24.408 56.8587 24.664 56.688C24.92 56.56 25.1547 56.3893 25.368 56.176C25.5813 56.0053 25.752 55.7493 25.88 55.408C25.4107 55.3227 24.984 55.3653 24.6 55.536C24.2587 55.7493 23.896 55.8987 23.512 55.984C23.0427 56.1547 22.552 56.304 22.04 56.432C21.528 56.6027 21.0373 56.7307 20.568 56.816C19.416 57.072 18.328 57.0293 17.304 56.688C16.28 56.3893 15.256 55.984 14.232 55.472C14.1467 55.6427 14.0187 55.792 13.848 55.92C13.72 56.048 13.592 56.2187 13.464 56.432C10.4773 55.2373 7.832 53.4667 5.528 51.12C3.94933 49.328 2.60533 47.1947 1.496 44.72C1.41067 44.3787 1.32533 44.08 1.24 43.824C1.15467 43.5253 1.06933 43.2053 0.984 42.864C0.728 40.7733 1.47467 39.28 3.224 38.384C4.03467 37.9573 4.93067 37.808 5.912 37.936C6.89333 38.064 7.72533 38.4693 8.408 39.152C8.62133 39.408 8.83467 39.6853 9.048 39.984C9.26133 40.2827 9.47467 40.56 9.688 40.816C9.944 41.2853 10.1573 41.7547 10.328 42.224C10.5413 42.6507 10.776 43.0773 11.032 43.504C11.672 44.5707 12.4613 45.5093 13.4 46.32C14.3387 47.1307 15.3627 47.792 16.472 48.304C17.5813 48.7733 18.7333 49.0933 19.928 49.264C21.1653 49.4347 22.4027 49.4133 23.64 49.2C24.6213 49.0293 25.496 48.688 26.264 48.176C27.032 47.6213 27.6293 46.9813 28.056 46.256C28.4827 45.488 28.7387 44.656 28.824 43.76C28.9093 42.8213 28.7813 41.8827 28.44 40.944C27.928 39.4933 27.2027 38.2133 26.264 37.104C25.3253 35.952 24.2373 34.9493 23 34.096C21.7627 33.1573 20.504 32.2827 19.224 31.472C17.9867 30.6187 16.728 29.7653 15.448 28.912C14.296 28.144 13.1867 27.312 12.12 26.416C11.096 25.52 10.1573 24.5173 9.304 23.408C8.408 22.128 7.78933 20.8053 7.448 19.44C7.10667 18.032 7 16.6453 7.128 15.28C7.256 13.872 7.61867 12.528 8.216 11.248C8.856 9.968 9.73067 8.79467 10.84 7.728C11.6933 6.832 12.632 6.128 13.656 5.616C14.7227 5.06133 15.8533 4.61333 17.048 4.272C17.4747 4.99733 17.7733 5.38133 17.944 5.424C18.1573 5.46666 18.5627 5.21067 19.16 4.656C18.7333 4.57066 18.3493 4.50666 18.008 4.464C17.6667 4.42133 17.304 4.37866 16.92 4.336ZM8.28 46.128C8.10933 46.0427 7.91733 45.8933 7.704 45.68C7.74667 45.808 7.78933 45.936 7.832 46.064C7.87467 46.1493 7.91733 46.2347 7.96 46.32C8.17333 46.8747 8.42933 47.3653 8.728 47.792C9.06933 48.2187 9.53867 48.5387 10.136 48.752C10.0507 48.0693 9.98667 47.664 9.944 47.536C9.90133 47.408 9.752 47.2373 9.496 47.024C9.28267 46.896 9.06933 46.7467 8.856 46.576C8.68533 46.4053 8.49333 46.256 8.28 46.128ZM20.76 23.984C20.9307 24.5387 21.0587 24.9013 21.144 25.072C21.2293 25.2 21.4853 25.328 21.912 25.456C22.8933 25.9253 23.8107 26.4587 24.664 27.056C25.5173 27.6533 26.3707 28.272 27.224 28.912C27.352 28.9973 27.5013 29.0827 27.672 29.168C27.8427 29.2107 28.056 29.296 28.312 29.424C27.7147 28.3147 26.6907 27.2693 25.24 26.288C23.832 25.264 22.3387 24.496 20.76 23.984ZM34.264 39.92C34.0933 39.1093 33.944 38.4053 33.816 37.808C33.688 37.168 33.4533 36.6133 33.112 36.144C33.0693 36.1013 32.8987 36.08 32.6 36.08C32.6 36.208 32.5787 36.3147 32.536 36.4C32.536 36.4853 32.536 36.5707 32.536 36.656C32.5787 36.784 32.6213 36.912 32.664 37.04C32.7067 37.168 32.792 37.3387 32.92 37.552H31.768C31.7253 37.9787 31.768 38.2987 31.896 38.512C32.024 38.7253 32.216 38.896 32.472 39.024C32.728 39.152 33.0053 39.28 33.304 39.408C33.6453 39.536 33.9653 39.7067 34.264 39.92ZM14.296 51.888C13.9973 51.376 13.6133 50.992 13.144 50.736C12.6747 50.4373 12.12 50.16 11.48 49.904C11.864 50.5867 12.2693 51.0773 12.696 51.376C13.1653 51.632 13.6987 51.8027 14.296 51.888ZM17.176 5.68C16.8347 5.59466 16.5787 5.53067 16.408 5.488C16.2373 5.40266 16.0667 5.31733 15.896 5.232C15.8533 5.44533 15.832 5.65866 15.832 5.872C15.832 6.08533 15.832 6.34133 15.832 6.64C16.0453 6.46933 16.2373 6.34133 16.408 6.256C16.5787 6.128 16.8347 5.936 17.176 5.68ZM34.008 42.288C34.264 41.9893 34.392 41.7973 34.392 41.712C34.3493 41.6267 34.3067 41.5413 34.264 41.456C34.2213 41.328 34.1787 41.2213 34.136 41.136C34.0933 41.3067 34.072 41.4773 34.072 41.648C34.072 41.776 34.0507 41.9893 34.008 42.288ZM32.216 34.288C32.1307 34.2027 32.024 34.1387 31.896 34.096L31.832 34.224C31.832 34.3093 31.8747 34.3947 31.96 34.48C32.0453 34.4373 32.1307 34.3733 32.216 34.288ZM31.768 36.464C31.5973 36.3787 31.512 36.336 31.512 36.336C31.4267 36.3787 31.384 36.4 31.384 36.4C31.3413 36.4 31.32 36.4213 31.32 36.464C31.3627 36.5493 31.4053 36.6133 31.448 36.656C31.4907 36.656 31.5333 36.6773 31.576 36.72C31.6613 36.6347 31.7253 36.5493 31.768 36.464ZM66.009 7.152C67.5023 7.06666 68.9317 7.23733 70.297 7.664C71.705 8.09066 73.0917 8.66666 74.457 9.392C75.4383 9.98933 76.2917 10.672 77.017 11.44C77.7423 12.1653 78.425 13.0187 79.065 14C79.6623 15.1947 79.897 16.368 79.769 17.52C79.7263 18.6293 79.385 19.568 78.745 20.336C78.105 21.0613 77.2303 21.5307 76.121 21.744C74.969 21.9147 73.945 21.7653 73.049 21.296C72.153 20.8267 71.5343 20.08 71.193 19.056C70.8943 18.3733 70.553 17.7973 70.169 17.328C69.785 16.8587 69.2517 16.496 68.569 16.24C67.673 15.856 66.7983 15.6427 65.945 15.6C65.0917 15.5573 64.2597 15.7707 63.449 16.24C60.2917 17.6053 57.9023 19.7173 56.281 22.576C55.4277 24.0693 54.7237 25.5627 54.169 27.056C53.6143 28.5493 53.1663 30.128 52.825 31.792C52.4837 33.1147 52.377 34.416 52.505 35.696C52.6757 36.9333 52.9957 38.1707 53.465 39.408C54.105 41.072 55.0223 42.416 56.217 43.44C57.4543 44.464 58.7983 45.168 60.249 45.552C61.7423 45.8933 63.257 45.872 64.793 45.488C66.329 45.104 67.7583 44.3147 69.081 43.12C69.465 42.7787 69.8277 42.3733 70.169 41.904C70.553 41.4347 70.9157 40.9867 71.257 40.56C71.4277 40.3467 71.577 40.112 71.705 39.856C71.8757 39.6 72.0677 39.3653 72.281 39.152C73.0917 38.2987 74.0517 37.8293 75.161 37.744C76.2703 37.6587 77.3157 37.936 78.297 38.576C79.1503 39.2587 79.705 40.0693 79.961 41.008C80.217 41.9467 80.0463 42.9707 79.449 44.08C78.9797 45.1893 78.361 46.2133 77.593 47.152C76.825 48.048 75.993 48.8587 75.097 49.584C72.409 51.632 69.6143 53.04 66.713 53.808C63.8117 54.5333 60.7183 54.4907 57.433 53.68C53.593 52.6987 50.5637 50.9067 48.345 48.304C46.169 45.7013 44.633 42.5013 43.737 38.704C43.3103 36.784 43.1823 34.9067 43.353 33.072C43.5237 31.2373 43.8863 29.3813 44.441 27.504C44.8677 26.0107 45.3583 24.56 45.913 23.152C46.5103 21.744 47.193 20.336 47.961 18.928C50.3503 14.576 53.8277 11.2693 58.393 9.008C59.673 8.28267 60.889 7.792 62.041 7.536C63.193 7.28 64.5157 7.152 66.009 7.152ZM64.665 8.432C64.3237 8.51733 63.9823 8.60266 63.641 8.688C63.3423 8.77333 63.001 8.816 62.617 8.816C61.7637 8.85866 61.0383 9.11466 60.441 9.584C59.8863 10.0107 59.1823 10.5227 58.329 11.12C59.865 10.5653 61.5077 10.1173 63.257 9.776C65.049 9.43466 66.7557 9.37066 68.377 9.584C70.041 9.75466 71.5343 10.288 72.857 11.184C74.1797 12.0373 75.1823 13.3813 75.865 15.216C75.9077 15.3013 75.993 15.3867 76.121 15.472C76.2917 15.5573 76.4837 15.7067 76.697 15.92C76.7823 15.536 76.8463 15.2373 76.889 15.024C76.9743 14.768 76.9957 14.5333 76.953 14.32C76.9103 14.1067 76.697 13.7867 76.313 13.36C75.9717 12.8907 75.5663 12.4213 75.097 11.952C74.6703 11.4827 74.2437 11.0773 73.817 10.736C73.3903 10.352 73.0917 10.1173 72.921 10.032C72.8357 9.98933 72.7077 9.98933 72.537 10.032C72.409 10.032 72.3023 10.032 72.217 10.032C71.961 9.94667 71.7903 9.86133 71.705 9.776C70.8943 9.05067 70.041 8.624 69.145 8.496C68.2917 8.368 67.3743 8.34666 66.393 8.432C66.0943 8.00533 65.7957 7.83466 65.497 7.92C65.241 8.00533 64.9637 8.176 64.665 8.432ZM47.129 43.248C47.001 42.9067 46.9157 42.6933 46.873 42.608C46.8303 42.48 46.7663 42.3733 46.681 42.288C45.657 40.1973 45.3157 38.0427 45.657 35.824C45.7423 35.44 45.7423 35.0773 45.657 34.736C45.6143 34.5653 45.5503 34.3947 45.465 34.224C45.3797 34.0533 45.2943 33.84 45.209 33.584C44.569 35.504 44.3983 37.3173 44.697 39.024C44.9957 40.7307 45.8063 42.1387 47.129 43.248ZM50.393 19.056C49.4117 19.7387 48.6863 20.464 48.217 21.232C47.7903 21.9573 47.5343 22.8747 47.449 23.984C48.1317 23.216 48.7077 22.448 49.177 21.68C49.6463 20.912 50.0517 20.0373 50.393 19.056ZM64.665 8.432H66.457C66.1157 8.73066 65.7957 8.85866 65.497 8.816C65.241 8.77333 64.9637 8.64533 64.665 8.432ZM104.012 37.616C104.225 37.8293 104.396 38.0213 104.524 38.192C104.652 38.3627 104.758 38.4907 104.844 38.576C106.294 39.984 107.873 41.136 109.58 42.032C111.286 42.928 113.1 43.6747 115.02 44.272C115.404 44.3573 115.788 44.4213 116.172 44.464C116.556 44.464 116.918 44.4853 117.26 44.528C118.198 44.656 118.988 44.9973 119.628 45.552C120.31 46.064 120.758 46.7467 120.972 47.6C121.228 48.5387 121.164 49.456 120.78 50.352C120.396 51.2053 119.777 51.8667 118.924 52.336C117.558 53.1467 116.108 53.4027 114.572 53.104C109.537 52.0373 104.929 49.9467 100.748 46.832C100.193 46.4053 99.6595 45.9787 99.1475 45.552C98.6355 45.1253 98.1448 44.6773 97.6755 44.208C97.5048 44.0373 97.3128 43.9093 97.0995 43.824C96.8862 43.696 96.6302 43.5253 96.3315 43.312C96.2462 43.6533 96.1822 43.9307 96.1395 44.144C96.0968 44.3573 96.0968 44.5707 96.1395 44.784C96.2248 45.936 96.3315 47.088 96.4595 48.24C96.6302 49.392 96.7582 50.5227 96.8435 51.632C96.8862 51.9733 96.9075 52.3147 96.9075 52.656C96.9075 52.9973 96.9075 53.3173 96.9075 53.616C96.8222 54.6827 96.4595 55.5787 95.8195 56.304C95.1795 57.072 94.3688 57.5627 93.3875 57.776C92.2782 57.9467 91.2755 57.7973 90.3795 57.328C89.4835 56.9013 88.8008 56.1973 88.3315 55.216C88.0328 54.6613 87.8622 54.0427 87.8195 53.36C87.5635 50.672 87.3075 48.0053 87.0515 45.36C86.8382 42.7147 86.6248 40.048 86.4115 37.36C86.1128 34.3733 85.8355 31.408 85.5795 28.464C85.3235 25.4773 85.0462 22.512 84.7475 19.568C84.5342 17.3067 84.3422 15.0453 84.1715 12.784C84.0008 10.5227 83.8088 8.24 83.5955 5.936C83.5102 5.168 83.5742 4.44266 83.7875 3.76C84.0008 3.03466 84.4275 2.37333 85.0675 1.776C85.7075 1.264 86.3902 0.965329 87.1155 0.879997C87.8835 0.751996 88.6088 0.794662 89.2915 1.008C89.9742 1.17866 90.5928 1.52 91.1475 2.032C91.7022 2.544 92.1075 3.184 92.3635 3.952C92.4915 4.42133 92.5768 4.89066 92.6195 5.36C92.7048 5.82933 92.7902 6.29867 92.8755 6.768C92.9608 7.10933 93.0035 7.42933 93.0035 7.728C93.0462 8.02666 93.0888 8.304 93.1315 8.56C93.6862 8.64533 94.0915 8.56 94.3475 8.304C94.6035 8.048 94.8808 7.792 95.1795 7.536C96.5022 6.59733 97.8462 5.808 99.2115 5.168C100.62 4.528 102.113 4.05866 103.692 3.76C107.19 3.12 110.561 3.41867 113.804 4.656C114.017 4.69866 114.209 4.848 114.38 5.104C113.996 5.104 113.612 5.06133 113.228 4.976C112.844 4.848 112.438 4.76266 112.012 4.72C111.628 4.67733 111.222 4.69866 110.796 4.784C110.412 4.82667 110.006 5.01867 109.58 5.36C109.878 5.488 110.092 5.59466 110.22 5.68C110.39 5.76533 110.54 5.82933 110.668 5.872C111.265 6.04266 111.82 6.17066 112.332 6.256C112.886 6.34133 113.462 6.384 114.06 6.384C114.87 6.384 115.596 6.55466 116.236 6.896C116.918 7.23733 117.665 7.42933 118.476 7.472C118.732 7.472 119.03 7.62133 119.372 7.92C119.713 8.21866 119.969 8.51733 120.14 8.816C121.206 10.3093 122.102 11.8453 122.828 13.424C123.212 14.0213 123.489 14.704 123.66 15.472C123.873 16.1973 124.022 16.9227 124.108 17.648C124.406 19.7813 124.278 21.8933 123.724 23.984C123.212 26.0747 122.358 27.9947 121.164 29.744C119.969 31.4507 118.476 32.9227 116.684 34.16C114.934 35.3973 112.993 36.2293 110.86 36.656C110.092 36.8693 109.281 37.0187 108.428 37.104C107.617 37.1467 106.806 37.232 105.996 37.36C105.484 37.36 104.822 37.4453 104.012 37.616ZM87.4995 20.912C87.4995 21.2107 87.5208 21.424 87.5635 21.552C87.6488 21.4667 87.7342 21.424 87.8195 21.424C87.9475 21.3813 88.0115 21.3173 88.0115 21.232C88.0542 21.1467 88.0328 21.0613 87.9475 20.976C87.9048 20.848 87.8622 20.7413 87.8195 20.656C88.2888 20.016 88.2888 19.2907 87.8195 18.48C87.4782 18.9493 87.3075 19.376 87.3075 19.76C87.3075 20.1013 87.3715 20.4853 87.4995 20.912ZM116.812 9.968C116.726 9.66933 116.598 9.43466 116.428 9.264C116.3 9.05066 116.065 8.944 115.724 8.944C115.766 9.54133 116.065 9.968 116.62 10.224C116.918 10.4373 117.174 10.7573 117.388 11.184C117.644 11.568 118.049 11.7173 118.604 11.632C118.561 10.992 118.369 10.5867 118.028 10.416C117.729 10.2027 117.324 10.0533 116.812 9.968ZM88.9715 37.36C89.2702 35.952 89.3342 34.8213 89.1635 33.968C89.0355 33.072 88.6728 32.304 88.0755 31.664C87.7768 32.5173 87.6488 33.3493 87.6915 34.16C87.7768 34.9707 87.8835 35.7813 88.0115 36.592C88.0542 36.7627 88.1395 36.9333 88.2675 37.104C88.4382 37.2747 88.5875 37.4453 88.7155 37.616C88.4595 38.256 88.3102 38.9173 88.2675 39.6C88.2248 40.2827 88.4168 40.9653 88.8435 41.648C89.0568 41.904 89.1422 42.16 89.0995 42.416C89.0995 42.672 89.0568 42.9707 88.9715 43.312C88.8862 43.5253 88.8222 43.8027 88.7795 44.144C88.7795 44.4853 88.8222 44.6773 88.9075 44.72C89.4195 45.0187 89.7608 45.4027 89.9315 45.872C90.1448 46.2987 90.4435 46.8107 90.8275 47.408C90.8275 47.0667 90.8488 46.7893 90.8915 46.576C90.9342 46.3627 90.9128 46.192 90.8275 46.064C90.7422 45.7227 90.6568 45.3813 90.5715 45.04C90.4862 44.656 90.4008 44.272 90.3155 43.888C90.2728 43.76 90.1875 43.6107 90.0595 43.44C89.9742 43.2693 89.9315 43.12 89.9315 42.992C90.0168 41.968 89.9528 41.008 89.7395 40.112C89.5688 39.1733 89.3128 38.256 88.9715 37.36ZM115.083 19.824C115.083 19.696 115.083 19.5253 115.083 19.312C115.083 19.0987 115.041 18.8213 114.956 18.48C114.742 17.2853 114.358 16.1973 113.804 15.216C113.292 14.192 112.417 13.4027 111.18 12.848C109.9 12.336 108.577 12.0587 107.212 12.016C105.846 11.9733 104.524 12.2507 103.244 12.848C101.238 13.7867 99.7022 14.8747 98.6355 16.112C97.5688 17.3493 96.8862 18.608 96.5875 19.888C96.3315 21.168 96.4168 22.4053 96.8435 23.6C97.2702 24.7947 97.9955 25.8187 99.0195 26.672C100.044 27.5253 101.324 28.144 102.86 28.528C104.438 28.912 106.209 28.912 108.172 28.528C109.153 28.3573 110.049 27.9947 110.86 27.44C111.713 26.8853 112.438 26.224 113.036 25.456C113.676 24.688 114.166 23.8347 114.507 22.896C114.891 21.9147 115.083 20.8907 115.083 19.824ZM107.404 44.4C108.257 45.4667 109.068 46.192 109.836 46.576C110.604 46.96 111.393 47.1093 112.204 47.024C112.204 46.8107 112.182 46.704 112.14 46.704C111.329 46.32 110.54 45.9573 109.772 45.616C109.004 45.232 108.214 44.8267 107.404 44.4ZM88.9715 12.656C87.9902 12.656 87.5208 13.04 87.5635 13.808C87.5635 14.2773 87.6488 14.5973 87.8195 14.768C88.0328 14.9387 88.4168 15.0667 88.9715 15.152V12.656ZM108.108 5.744C108.022 5.57333 107.894 5.44533 107.724 5.36C106.785 5.36 106.06 5.70133 105.548 6.384C106.486 7.10933 107.105 7.19466 107.404 6.64C107.276 6.384 107.233 6.23466 107.276 6.192C107.318 6.10667 107.404 6.064 107.532 6.064C107.66 6.02133 107.788 6 107.916 6C108.044 5.95733 108.108 5.872 108.108 5.744ZM87.7555 28.656C87.6702 29.3813 87.6488 29.8293 87.6915 30C87.7768 30.128 88.0968 30.2347 88.6515 30.32C88.9075 29.5093 88.6088 28.9547 87.7555 28.656ZM103.692 6.64C103.137 6.42666 102.71 6.384 102.412 6.512C102.156 6.59733 101.878 6.832 101.58 7.216C102.305 7.42933 103.009 7.23733 103.692 6.64ZM87.5635 10.416C87.8622 10.544 88.0968 10.672 88.2675 10.8C88.4382 10.928 88.6515 11.0773 88.9075 11.248V8.88C88.6515 9.17867 88.4382 9.43467 88.2675 9.648C88.0968 9.86133 87.8622 10.1173 87.5635 10.416ZM88.1395 15.856C87.7982 16.112 87.6275 16.2613 87.6275 16.304C87.6275 16.432 87.6488 16.56 87.6915 16.688C87.7768 16.816 87.8408 16.944 87.8835 17.072C88.0115 16.9867 88.1395 16.9227 88.2675 16.88C88.3955 16.7947 88.4595 16.7093 88.4595 16.624C88.5448 16.5387 88.5235 16.432 88.3955 16.304C88.3102 16.176 88.2248 16.0267 88.1395 15.856ZM88.0115 22.192C87.7982 22.576 87.6488 22.832 87.5635 22.96C87.5208 23.0453 87.5208 23.1307 87.5635 23.216C87.5635 23.3013 87.5848 23.408 87.6275 23.536C87.7128 23.6213 87.7768 23.7067 87.8195 23.792C87.8622 23.792 87.9048 23.792 87.9475 23.792C88.0328 23.7493 88.0968 23.728 88.1395 23.728C88.0968 23.5147 88.0755 23.3227 88.0755 23.152C88.0755 22.9813 88.0542 22.6613 88.0115 22.192ZM88.0755 25.584C88.0328 25.5413 88.0115 25.4987 88.0115 25.456C88.0115 25.4133 87.9688 25.3707 87.8835 25.328C87.6702 25.456 87.5635 25.52 87.5635 25.52C87.5635 25.6053 87.5848 25.6693 87.6275 25.712C87.7128 25.712 87.7768 25.7547 87.8195 25.84L88.0755 25.584ZM135.407 47.984C135.62 41.7973 135.812 35.6107 135.983 29.424C136.153 23.1947 135.961 16.9227 135.407 10.608C135.023 10.6933 134.681 10.7787 134.383 10.864C134.084 10.9493 133.807 11.0347 133.551 11.12C132.313 11.376 131.161 11.2267 130.095 10.672C129.071 10.0747 128.367 9.22133 127.983 8.112C127.641 7.04533 127.705 6.04266 128.174 5.104C128.644 4.12266 129.455 3.35466 130.607 2.8C131.076 2.58666 131.545 2.39466 132.015 2.224C132.527 2.05333 133.06 1.92533 133.615 1.84C135.919 1.66933 138.223 1.60533 140.527 1.648C142.873 1.648 145.22 1.98933 147.567 2.672C147.908 2.75733 148.271 2.90667 148.655 3.12C149.039 3.29067 149.401 3.48267 149.743 3.696C150.511 4.208 151.044 4.86933 151.343 5.68C151.641 6.448 151.663 7.23733 151.407 8.048C150.809 9.712 149.721 10.6933 148.143 10.992C147.631 11.0773 147.14 11.12 146.671 11.12C146.201 11.12 145.668 11.1413 145.071 11.184C145.028 11.44 144.964 11.696 144.878 11.952C144.836 12.208 144.815 12.4427 144.815 12.656C144.815 13.2107 144.815 13.7653 144.815 14.32C144.857 14.8747 144.878 15.4507 144.878 16.048C144.921 18.9067 144.964 21.7867 145.007 24.688C145.049 27.5893 145.071 30.512 145.071 33.456C145.071 35.376 145.028 37.3173 144.943 39.28C144.9 41.2 144.836 43.12 144.751 45.04C144.751 45.424 144.751 45.8293 144.751 46.256C144.793 46.64 144.815 47.0027 144.815 47.344C145.284 47.6853 145.732 47.8347 146.159 47.792C146.628 47.7493 147.097 47.7493 147.567 47.792C148.889 47.8773 149.935 48.4107 150.703 49.392C151.471 50.3307 151.748 51.44 151.535 52.72C151.449 53.4027 151.193 53.9787 150.767 54.448C150.383 54.9173 149.892 55.3013 149.295 55.6C148.825 55.8133 148.292 56.0053 147.695 56.176C147.14 56.3893 146.607 56.4747 146.095 56.432C144.175 56.3893 142.255 56.3893 140.335 56.432C138.415 56.5173 136.495 56.6667 134.575 56.88C133.935 57.008 133.359 57.008 132.847 56.88C131.609 56.7947 130.585 56.3893 129.775 55.664C128.964 54.9813 128.516 54.1493 128.431 53.168C128.345 52.0587 128.644 51.12 129.327 50.352C130.009 49.5413 130.905 49.008 132.015 48.752C132.569 48.624 133.103 48.5173 133.615 48.432C134.127 48.3467 134.724 48.1973 135.407 47.984ZM143.087 39.216V40.88C143.257 40.5813 143.364 40.304 143.407 40.048C143.492 39.7493 143.407 39.4507 143.151 39.152C143.321 38.512 143.343 37.8933 143.215 37.296C143.129 36.656 143.065 36.0373 143.023 35.44C142.724 36.1653 142.575 36.8053 142.575 37.36C142.617 37.9147 142.788 38.5333 143.087 39.216ZM149.103 49.008C148.761 49.0933 148.463 49.136 148.207 49.136C147.993 49.136 147.78 49.1573 147.567 49.2C146.5 49.2853 145.455 49.456 144.431 49.712C143.407 49.9253 142.361 49.968 141.295 49.84C140.697 49.7547 140.057 49.776 139.375 49.904C138.735 50.032 138.073 50.1387 137.391 50.224C137.305 50.2667 137.135 50.416 136.879 50.672C137.433 51.568 138.031 52.0373 138.671 52.08C139.311 52.08 140.036 51.952 140.847 51.696C141.657 51.3973 142.532 51.0773 143.471 50.736C144.409 50.352 145.455 50.224 146.607 50.352C147.759 50.3947 148.548 50.3733 148.975 50.288C149.401 50.16 149.444 49.7333 149.103 49.008ZM146.991 5.872C147.119 4.976 146.863 4.50666 146.223 4.464C145.625 4.37866 145.071 4.31467 144.559 4.272C144.047 4.22933 143.492 4.16533 142.895 4.08C142.041 3.90933 141.039 4.05866 139.887 4.528C140.143 4.912 140.399 5.25333 140.655 5.552C140.911 5.808 141.273 5.82933 141.743 5.616C141.871 5.57333 141.999 5.552 142.127 5.552C142.255 5.50933 142.361 5.53067 142.447 5.616C142.831 5.82933 143.215 5.936 143.599 5.936C143.983 5.936 144.345 5.91466 144.687 5.872C145.071 5.78667 145.455 5.72267 145.839 5.68C146.223 5.63733 146.607 5.70133 146.991 5.872ZM141.231 39.088C141.316 39.088 141.401 39.088 141.487 39.088C141.572 39.088 141.657 39.0667 141.743 39.024C141.871 38.384 141.977 37.744 142.062 37.104C142.148 36.4213 141.999 35.76 141.615 35.12C141.273 35.248 141.103 35.3333 141.103 35.376C141.103 35.9733 141.103 36.592 141.103 37.232C141.145 37.8293 141.188 38.448 141.231 39.088ZM141.615 34.48C141.828 33.6267 141.935 32.9013 141.935 32.304C141.977 31.664 141.871 31.024 141.615 30.384C141.401 30.5973 141.231 30.7893 141.103 30.96C141.017 31.1307 140.975 31.344 140.975 31.6C140.975 31.856 141.017 32.1973 141.103 32.624C141.231 33.0507 141.401 33.6693 141.615 34.48ZM141.039 24.304C140.996 24.688 140.975 25.0293 140.975 25.328C140.975 25.584 140.975 25.9253 140.975 26.352C141.487 25.968 141.743 25.6267 141.743 25.328C141.743 25.0293 141.508 24.688 141.039 24.304ZM141.039 21.936C141.039 22.1067 141.017 22.2773 140.975 22.448H141.167V21.936H141.039ZM143.023 34.032V33.648C142.937 33.648 142.873 33.6693 142.831 33.712C142.831 33.712 142.809 33.712 142.767 33.712H142.703C142.703 33.8827 142.745 34.0107 142.831 34.096C142.873 34.096 142.895 34.096 142.895 34.096C142.895 34.0533 142.937 34.032 143.023 34.032ZM165.065 9.648C166.089 9.136 167.049 8.64533 167.945 8.176C168.883 7.664 169.843 7.10933 170.825 6.512C170.867 6.55466 170.889 6.61866 170.889 6.704C170.931 6.74666 170.995 6.78933 171.081 6.832C170.91 7.04533 170.761 7.28 170.633 7.536C170.505 7.74933 170.334 7.96267 170.121 8.176C170.462 8.34667 170.761 8.38933 171.017 8.304C171.273 8.176 171.529 8.048 171.785 7.92C172.723 7.32266 173.641 6.832 174.537 6.448C175.475 6.064 176.499 5.91466 177.609 6C177.865 6.04266 178.057 6.02133 178.185 5.936C178.313 5.85066 178.419 5.744 178.505 5.616C178.633 5.44533 178.739 5.296 178.825 5.168C178.953 4.99733 179.102 4.848 179.273 4.72C182.174 4.464 184.883 5.04 187.401 6.448C188.723 7.17333 189.811 8.048 190.665 9.072C191.518 10.0533 192.137 11.1413 192.521 12.336C192.947 13.488 193.097 14.7253 192.969 16.048C192.883 17.328 192.542 18.6293 191.944 19.952C191.305 21.3173 190.537 22.5547 189.641 23.664C188.787 24.7733 187.806 25.84 186.697 26.864C186.355 27.2053 186.035 27.5253 185.737 27.824C185.438 28.08 185.118 28.3787 184.777 28.72C184.99 29.1893 185.267 29.5307 185.609 29.744C185.95 29.9147 186.291 30.0853 186.632 30.256C189.491 32.048 191.539 34.544 192.777 37.744C193.971 41.2 193.566 44.4427 191.561 47.472C190.451 49.264 189.065 50.6933 187.401 51.76C185.779 52.784 183.945 53.5307 181.897 54C179.849 54.4267 177.801 54.5973 175.753 54.512C173.705 54.4693 171.614 54.256 169.481 53.872C169.267 53.8293 169.054 53.7867 168.841 53.744C168.627 53.7013 168.414 53.6587 168.201 53.616C168.115 53.616 168.03 53.6373 167.945 53.68C167.859 53.68 167.731 53.68 167.561 53.68C167.475 53.8933 167.369 54.1067 167.241 54.32C167.155 54.576 167.049 54.8107 166.921 55.024C165.982 57.0293 164.382 57.904 162.121 57.648C161.182 57.52 160.371 57.1573 159.689 56.56C159.049 56.0053 158.622 55.2373 158.409 54.256C158.238 53.744 158.131 53.2533 158.089 52.784C158.046 52.272 158.003 51.7387 157.961 51.184C157.833 48.0693 157.683 44.976 157.513 41.904C157.385 38.7893 157.257 35.632 157.129 32.432C157.043 30.4267 156.979 28.4427 156.937 26.48C156.894 24.4747 156.766 22.4693 156.553 20.464C156.467 18.928 156.361 17.392 156.233 15.856C156.105 14.32 155.955 12.8053 155.785 11.312C155.742 11.056 155.699 10.8 155.657 10.544C155.657 10.2453 155.657 9.968 155.657 9.712C155.657 7.45066 156.766 6 158.985 5.36C159.923 5.104 160.862 5.168 161.801 5.552C162.739 5.936 163.465 6.576 163.977 7.472C164.19 7.81333 164.382 8.15466 164.553 8.496C164.723 8.83733 164.894 9.22133 165.065 9.648ZM183.753 33.584C183.539 33.4987 183.347 33.4133 183.177 33.328C183.006 33.2 182.793 33.136 182.537 33.136C182.451 33.136 182.345 33.2 182.217 33.328C182.089 33.456 181.939 33.5627 181.769 33.648C182.238 33.8613 182.622 33.9467 182.921 33.904C183.219 33.8613 183.518 33.7333 183.817 33.52C184.115 33.8613 184.457 34.1813 184.841 34.48C185.225 34.736 185.587 35.0347 185.929 35.376C186.014 35.4613 186.057 35.5253 186.057 35.568C186.099 35.568 186.078 35.5467 185.993 35.504C186.121 35.5467 186.142 35.568 186.057 35.568C186.014 35.5253 185.95 35.4827 185.865 35.44C185.779 34.7147 185.609 34.2667 185.353 34.096C185.139 33.8827 184.606 33.712 183.753 33.584ZM166.793 36.336C166.622 37.1893 166.558 38.0213 166.601 38.832C166.686 39.6427 166.729 40.4747 166.729 41.328C166.729 41.8827 166.835 42.3307 167.049 42.672C167.305 43.0133 167.667 43.3333 168.137 43.632C170.185 45.0827 172.275 45.8933 174.409 46.064C176.542 46.2347 178.761 45.9573 181.065 45.232C181.406 45.1467 181.747 44.9973 182.089 44.784C182.43 44.528 182.771 44.2293 183.113 43.888C184.435 42.6933 184.67 41.3067 183.817 39.728C183.518 39.1307 183.134 38.64 182.665 38.256C182.238 37.872 181.747 37.5307 181.193 37.232C180.382 36.7627 179.571 36.4213 178.761 36.208C177.95 35.952 177.118 35.7813 176.265 35.696C174.643 35.44 173.065 35.4187 171.529 35.632C170.035 35.8027 168.457 36.0373 166.793 36.336ZM166.473 27.376C166.686 27.2907 166.899 27.248 167.113 27.248C167.326 27.2053 167.518 27.1413 167.689 27.056C169.054 26.5867 170.355 26.1173 171.593 25.648C172.873 25.136 174.153 24.624 175.433 24.112C177.267 23.3013 178.889 22.1707 180.297 20.72C181.662 19.568 182.707 18.224 183.433 16.688C184.115 15.2373 183.731 14.2133 182.281 13.616C181.598 13.36 180.873 13.232 180.105 13.232C179.379 13.1893 178.654 13.2533 177.929 13.424C175.539 13.8933 173.406 14.768 171.529 16.048C169.694 17.328 168.073 18.9067 166.665 20.784C166.537 21.04 166.387 21.3173 166.217 21.616C166.046 21.872 165.961 22.1493 165.961 22.448C165.918 23.2587 165.918 24.0693 165.961 24.88C166.046 25.648 166.217 26.48 166.473 27.376ZM163.977 37.616C164.105 36.8053 164.169 36.2507 164.169 35.952C164.254 34.928 164.169 33.904 163.913 32.88C163.657 31.8133 163.55 30.7467 163.593 29.68C163.593 29.6373 163.55 29.5947 163.465 29.552C163.422 29.4667 163.379 29.3813 163.337 29.296C162.569 29.168 162.163 29.488 162.121 30.256C162.078 31.0667 162.142 31.8773 162.312 32.688C162.483 33.456 162.611 34.2453 162.697 35.056C162.739 35.5253 162.846 35.952 163.017 36.336C163.187 36.6773 163.507 37.104 163.977 37.616ZM182.089 23.664C182.302 23.6213 182.494 23.6213 182.665 23.664C182.835 23.664 182.963 23.6213 183.049 23.536C183.475 23.2373 183.945 22.8533 184.457 22.384C184.969 21.872 185.417 21.3387 185.801 20.784C186.185 20.2293 186.462 19.6747 186.632 19.12C186.803 18.5227 186.803 17.968 186.632 17.456C185.907 18.5653 185.161 19.6107 184.393 20.592C183.625 21.5307 182.857 22.5547 182.089 23.664ZM188.169 44.4C187.614 44.9547 187.187 45.3813 186.889 45.68C186.59 45.9787 186.355 46.2347 186.185 46.448C186.057 46.6613 185.95 46.8533 185.865 47.024C185.822 47.1947 185.779 47.4293 185.737 47.728C186.249 47.3013 186.718 46.8747 187.145 46.448C187.614 45.9787 187.955 45.296 188.169 44.4ZM161.865 26.096C161.822 26.5653 161.779 26.992 161.737 27.376C161.694 27.76 161.971 28.1227 162.569 28.464C162.697 28.0373 162.825 27.696 162.953 27.44C163.081 27.1413 163.145 26.9067 163.145 26.736C163.187 26.5653 163.102 26.4373 162.889 26.352C162.718 26.2667 162.377 26.1813 161.865 26.096ZM183.049 50.672C182.238 50.7573 181.747 50.864 181.577 50.992C181.449 51.0773 181.534 51.2693 181.833 51.568C182.046 51.3973 182.238 51.248 182.409 51.12C182.579 50.9493 182.793 50.8 183.049 50.672ZM175.753 30.704C175.155 30.704 174.771 30.768 174.601 30.896C174.43 30.9813 174.153 31.3227 173.769 31.92C174.153 31.7067 174.494 31.5147 174.793 31.344C175.091 31.1307 175.411 30.9173 175.753 30.704ZM162.121 21.872C161.95 22.1707 161.822 22.384 161.737 22.512C161.651 22.5973 161.609 22.6827 161.609 22.768C161.566 22.8533 161.566 22.96 161.609 23.088C161.651 23.216 161.673 23.344 161.673 23.472C161.758 23.3867 161.843 23.3013 161.929 23.216C162.057 23.1307 162.163 23.0453 162.249 22.96C162.334 22.8747 162.334 22.768 162.249 22.64C162.206 22.512 162.163 22.256 162.121 21.872ZM179.849 5.36C180.147 5.872 180.361 6.17066 180.489 6.256C180.617 6.29866 180.958 6.23466 181.513 6.064C181.214 5.936 180.937 5.82933 180.681 5.744C180.425 5.65866 180.147 5.53066 179.849 5.36ZM162.889 17.456C162.462 17.2853 162.163 17.1787 161.993 17.136C161.822 17.0933 161.673 17.0293 161.545 16.944C161.545 16.944 161.481 17.008 161.353 17.136C161.31 17.1787 161.289 17.2213 161.289 17.264C161.417 17.3493 161.523 17.4347 161.609 17.52C161.694 17.6053 161.779 17.6693 161.865 17.712C161.95 17.7973 162.057 17.7973 162.185 17.712C162.313 17.6267 162.547 17.5413 162.889 17.456ZM164.041 38.832C163.955 38.6613 163.87 38.512 163.785 38.384C163.699 38.4693 163.635 38.5547 163.593 38.64C163.593 38.7253 163.55 38.7893 163.465 38.832C163.55 38.8747 163.593 38.9173 163.593 38.96C163.635 39.0027 163.678 39.024 163.72 39.024C163.806 39.024 163.913 38.96 164.041 38.832ZM164.361 41.2C164.233 41.328 164.169 41.3707 164.169 41.328C164.169 41.328 164.169 41.392 164.169 41.52C164.339 41.4347 164.425 41.392 164.425 41.392C164.425 41.3493 164.403 41.328 164.361 41.328C164.361 41.2853 164.361 41.2427 164.361 41.2ZM189.001 41.84V41.456C188.958 41.4987 188.915 41.52 188.873 41.52C188.873 41.52 188.851 41.5413 188.809 41.584C188.766 41.584 188.745 41.6267 188.745 41.712V41.776C188.83 41.8187 188.915 41.84 189.001 41.84ZM206.815 9.648C207.839 9.136 208.799 8.64533 209.695 8.176C210.633 7.664 211.593 7.10933 212.575 6.512C212.617 6.55466 212.639 6.61866 212.639 6.704C212.681 6.74666 212.745 6.78933 212.831 6.832C212.66 7.04533 212.511 7.28 212.383 7.536C212.255 7.74933 212.084 7.96267 211.871 8.176C212.212 8.34667 212.511 8.38933 212.767 8.304C213.023 8.176 213.279 8.048 213.535 7.92C214.473 7.32266 215.391 6.832 216.287 6.448C217.225 6.064 218.249 5.91466 219.359 6C219.615 6.04266 219.807 6.02133 219.935 5.936C220.063 5.85066 220.169 5.744 220.255 5.616C220.383 5.44533 220.489 5.296 220.575 5.168C220.703 4.99733 220.852 4.848 221.023 4.72C223.924 4.464 226.633 5.04 229.151 6.448C230.473 7.17333 231.561 8.048 232.415 9.072C233.268 10.0533 233.887 11.1413 234.271 12.336C234.697 13.488 234.847 14.7253 234.719 16.048C234.633 17.328 234.292 18.6293 233.694 19.952C233.055 21.3173 232.287 22.5547 231.391 23.664C230.537 24.7733 229.556 25.84 228.447 26.864C228.105 27.2053 227.785 27.5253 227.487 27.824C227.188 28.08 226.868 28.3787 226.527 28.72C226.74 29.1893 227.017 29.5307 227.359 29.744C227.7 29.9147 228.041 30.0853 228.382 30.256C231.241 32.048 233.289 34.544 234.527 37.744C235.721 41.2 235.316 44.4427 233.311 47.472C232.201 49.264 230.815 50.6933 229.151 51.76C227.529 52.784 225.695 53.5307 223.647 54C221.599 54.4267 219.551 54.5973 217.503 54.512C215.455 54.4693 213.364 54.256 211.231 53.872C211.017 53.8293 210.804 53.7867 210.591 53.744C210.377 53.7013 210.164 53.6587 209.951 53.616C209.865 53.616 209.78 53.6373 209.695 53.68C209.609 53.68 209.481 53.68 209.311 53.68C209.225 53.8933 209.119 54.1067 208.991 54.32C208.905 54.576 208.799 54.8107 208.671 55.024C207.732 57.0293 206.132 57.904 203.871 57.648C202.932 57.52 202.121 57.1573 201.439 56.56C200.799 56.0053 200.372 55.2373 200.159 54.256C199.988 53.744 199.881 53.2533 199.839 52.784C199.796 52.272 199.753 51.7387 199.711 51.184C199.583 48.0693 199.433 44.976 199.263 41.904C199.135 38.7893 199.007 35.632 198.879 32.432C198.793 30.4267 198.729 28.4427 198.687 26.48C198.644 24.4747 198.516 22.4693 198.303 20.464C198.217 18.928 198.111 17.392 197.983 15.856C197.855 14.32 197.705 12.8053 197.535 11.312C197.492 11.056 197.449 10.8 197.407 10.544C197.407 10.2453 197.407 9.968 197.407 9.712C197.407 7.45066 198.516 6 200.735 5.36C201.673 5.104 202.612 5.168 203.551 5.552C204.489 5.936 205.215 6.576 205.727 7.472C205.94 7.81333 206.132 8.15466 206.303 8.496C206.473 8.83733 206.644 9.22133 206.815 9.648ZM225.503 33.584C225.289 33.4987 225.097 33.4133 224.927 33.328C224.756 33.2 224.543 33.136 224.287 33.136C224.201 33.136 224.095 33.2 223.967 33.328C223.839 33.456 223.689 33.5627 223.519 33.648C223.988 33.8613 224.372 33.9467 224.671 33.904C224.969 33.8613 225.268 33.7333 225.567 33.52C225.865 33.8613 226.207 34.1813 226.591 34.48C226.975 34.736 227.337 35.0347 227.679 35.376C227.764 35.4613 227.807 35.5253 227.807 35.568C227.849 35.568 227.828 35.5467 227.743 35.504C227.871 35.5467 227.892 35.568 227.807 35.568C227.764 35.5253 227.7 35.4827 227.615 35.44C227.529 34.7147 227.359 34.2667 227.103 34.096C226.889 33.8827 226.356 33.712 225.503 33.584ZM208.543 36.336C208.372 37.1893 208.308 38.0213 208.351 38.832C208.436 39.6427 208.479 40.4747 208.479 41.328C208.479 41.8827 208.585 42.3307 208.799 42.672C209.055 43.0133 209.417 43.3333 209.887 43.632C211.935 45.0827 214.025 45.8933 216.159 46.064C218.292 46.2347 220.511 45.9573 222.815 45.232C223.156 45.1467 223.497 44.9973 223.839 44.784C224.18 44.528 224.521 44.2293 224.863 43.888C226.185 42.6933 226.42 41.3067 225.567 39.728C225.268 39.1307 224.884 38.64 224.415 38.256C223.988 37.872 223.497 37.5307 222.943 37.232C222.132 36.7627 221.321 36.4213 220.511 36.208C219.7 35.952 218.868 35.7813 218.015 35.696C216.393 35.44 214.815 35.4187 213.279 35.632C211.785 35.8027 210.207 36.0373 208.543 36.336ZM208.223 27.376C208.436 27.2907 208.649 27.248 208.863 27.248C209.076 27.2053 209.268 27.1413 209.439 27.056C210.804 26.5867 212.105 26.1173 213.343 25.648C214.623 25.136 215.903 24.624 217.183 24.112C219.017 23.3013 220.639 22.1707 222.047 20.72C223.412 19.568 224.457 18.224 225.183 16.688C225.865 15.2373 225.481 14.2133 224.031 13.616C223.348 13.36 222.623 13.232 221.855 13.232C221.129 13.1893 220.404 13.2533 219.679 13.424C217.289 13.8933 215.156 14.768 213.279 16.048C211.444 17.328 209.823 18.9067 208.415 20.784C208.287 21.04 208.137 21.3173 207.967 21.616C207.796 21.872 207.711 22.1493 207.711 22.448C207.668 23.2587 207.668 24.0693 207.711 24.88C207.796 25.648 207.967 26.48 208.223 27.376ZM205.727 37.616C205.855 36.8053 205.919 36.2507 205.919 35.952C206.004 34.928 205.919 33.904 205.663 32.88C205.407 31.8133 205.3 30.7467 205.343 29.68C205.343 29.6373 205.3 29.5947 205.215 29.552C205.172 29.4667 205.129 29.3813 205.087 29.296C204.319 29.168 203.913 29.488 203.871 30.256C203.828 31.0667 203.892 31.8773 204.062 32.688C204.233 33.456 204.361 34.2453 204.447 35.056C204.489 35.5253 204.596 35.952 204.767 36.336C204.937 36.6773 205.257 37.104 205.727 37.616ZM223.839 23.664C224.052 23.6213 224.244 23.6213 224.415 23.664C224.585 23.664 224.713 23.6213 224.799 23.536C225.225 23.2373 225.695 22.8533 226.207 22.384C226.719 21.872 227.167 21.3387 227.551 20.784C227.935 20.2293 228.212 19.6747 228.382 19.12C228.553 18.5227 228.553 17.968 228.382 17.456C227.657 18.5653 226.911 19.6107 226.143 20.592C225.375 21.5307 224.607 22.5547 223.839 23.664ZM229.919 44.4C229.364 44.9547 228.937 45.3813 228.639 45.68C228.34 45.9787 228.105 46.2347 227.935 46.448C227.807 46.6613 227.7 46.8533 227.615 47.024C227.572 47.1947 227.529 47.4293 227.487 47.728C227.999 47.3013 228.468 46.8747 228.895 46.448C229.364 45.9787 229.705 45.296 229.919 44.4ZM203.615 26.096C203.572 26.5653 203.529 26.992 203.487 27.376C203.444 27.76 203.721 28.1227 204.319 28.464C204.447 28.0373 204.575 27.696 204.703 27.44C204.831 27.1413 204.895 26.9067 204.895 26.736C204.937 26.5653 204.852 26.4373 204.639 26.352C204.468 26.2667 204.127 26.1813 203.615 26.096ZM224.799 50.672C223.988 50.7573 223.497 50.864 223.327 50.992C223.199 51.0773 223.284 51.2693 223.583 51.568C223.796 51.3973 223.988 51.248 224.159 51.12C224.329 50.9493 224.543 50.8 224.799 50.672ZM217.503 30.704C216.905 30.704 216.521 30.768 216.351 30.896C216.18 30.9813 215.903 31.3227 215.519 31.92C215.903 31.7067 216.244 31.5147 216.543 31.344C216.841 31.1307 217.161 30.9173 217.503 30.704ZM203.871 21.872C203.7 22.1707 203.572 22.384 203.487 22.512C203.401 22.5973 203.359 22.6827 203.359 22.768C203.316 22.8533 203.316 22.96 203.359 23.088C203.401 23.216 203.423 23.344 203.423 23.472C203.508 23.3867 203.593 23.3013 203.679 23.216C203.807 23.1307 203.913 23.0453 203.999 22.96C204.084 22.8747 204.084 22.768 203.999 22.64C203.956 22.512 203.913 22.256 203.871 21.872ZM221.599 5.36C221.897 5.872 222.111 6.17066 222.239 6.256C222.367 6.29866 222.708 6.23466 223.263 6.064C222.964 5.936 222.687 5.82933 222.431 5.744C222.175 5.65866 221.897 5.53066 221.599 5.36ZM204.639 17.456C204.212 17.2853 203.913 17.1787 203.743 17.136C203.572 17.0933 203.423 17.0293 203.295 16.944C203.295 16.944 203.231 17.008 203.103 17.136C203.06 17.1787 203.039 17.2213 203.039 17.264C203.167 17.3493 203.273 17.4347 203.359 17.52C203.444 17.6053 203.529 17.6693 203.615 17.712C203.7 17.7973 203.807 17.7973 203.935 17.712C204.063 17.6267 204.297 17.5413 204.639 17.456ZM205.791 38.832C205.705 38.6613 205.62 38.512 205.535 38.384C205.449 38.4693 205.385 38.5547 205.343 38.64C205.343 38.7253 205.3 38.7893 205.215 38.832C205.3 38.8747 205.343 38.9173 205.343 38.96C205.385 39.0027 205.428 39.024 205.47 39.024C205.556 39.024 205.663 38.96 205.791 38.832ZM206.111 41.2C205.983 41.328 205.919 41.3707 205.919 41.328C205.919 41.328 205.919 41.392 205.919 41.52C206.089 41.4347 206.175 41.392 206.175 41.392C206.175 41.3493 206.153 41.328 206.111 41.328C206.111 41.2853 206.111 41.2427 206.111 41.2ZM230.751 41.84V41.456C230.708 41.4987 230.665 41.52 230.623 41.52C230.623 41.52 230.601 41.5413 230.559 41.584C230.516 41.584 230.495 41.6267 230.495 41.712V41.776C230.58 41.8187 230.665 41.84 230.751 41.84ZM259.637 37.616C259.85 37.8293 260.021 38.0213 260.149 38.192C260.277 38.3627 260.383 38.4907 260.469 38.576C261.919 39.984 263.498 41.136 265.205 42.032C266.911 42.928 268.725 43.6747 270.645 44.272C271.029 44.3573 271.413 44.4213 271.797 44.464C272.181 44.464 272.543 44.4853 272.885 44.528C273.823 44.656 274.613 44.9973 275.253 45.552C275.935 46.064 276.383 46.7467 276.597 47.6C276.853 48.5387 276.789 49.456 276.405 50.352C276.021 51.2053 275.402 51.8667 274.549 52.336C273.183 53.1467 271.733 53.4027 270.197 53.104C265.162 52.0373 260.554 49.9467 256.373 46.832C255.818 46.4053 255.285 45.9787 254.773 45.552C254.261 45.1253 253.77 44.6773 253.301 44.208C253.13 44.0373 252.938 43.9093 252.725 43.824C252.511 43.696 252.255 43.5253 251.957 43.312C251.871 43.6533 251.807 43.9307 251.765 44.144C251.722 44.3573 251.722 44.5707 251.765 44.784C251.85 45.936 251.957 47.088 252.085 48.24C252.255 49.392 252.383 50.5227 252.469 51.632C252.511 51.9733 252.533 52.3147 252.533 52.656C252.533 52.9973 252.533 53.3173 252.533 53.616C252.447 54.6827 252.085 55.5787 251.445 56.304C250.805 57.072 249.994 57.5627 249.013 57.776C247.903 57.9467 246.901 57.7973 246.005 57.328C245.109 56.9013 244.426 56.1973 243.957 55.216C243.658 54.6613 243.487 54.0427 243.445 53.36C243.189 50.672 242.933 48.0053 242.677 45.36C242.463 42.7147 242.25 40.048 242.036 37.36C241.738 34.3733 241.461 31.408 241.205 28.464C240.949 25.4773 240.671 22.512 240.373 19.568C240.159 17.3067 239.967 15.0453 239.797 12.784C239.626 10.5227 239.434 8.24 239.221 5.936C239.135 5.168 239.199 4.44266 239.413 3.76C239.626 3.03466 240.053 2.37333 240.693 1.776C241.333 1.264 242.015 0.965329 242.741 0.879997C243.509 0.751996 244.234 0.794662 244.917 1.008C245.599 1.17866 246.218 1.52 246.773 2.032C247.327 2.544 247.733 3.184 247.989 3.952C248.117 4.42133 248.202 4.89066 248.245 5.36C248.33 5.82933 248.415 6.29867 248.501 6.768C248.586 7.10933 248.629 7.42933 248.629 7.728C248.671 8.02666 248.714 8.304 248.757 8.56C249.311 8.64533 249.717 8.56 249.973 8.304C250.229 8.048 250.506 7.792 250.805 7.536C252.127 6.59733 253.471 5.808 254.837 5.168C256.245 4.528 257.738 4.05866 259.317 3.76C262.815 3.12 266.186 3.41867 269.429 4.656C269.642 4.69866 269.834 4.848 270.005 5.104C269.621 5.104 269.237 5.06133 268.853 4.976C268.469 4.848 268.063 4.76266 267.637 4.72C267.253 4.67733 266.847 4.69866 266.421 4.784C266.037 4.82667 265.631 5.01867 265.205 5.36C265.503 5.488 265.717 5.59466 265.845 5.68C266.015 5.76533 266.165 5.82933 266.293 5.872C266.89 6.04266 267.445 6.17066 267.957 6.256C268.511 6.34133 269.087 6.384 269.685 6.384C270.495 6.384 271.221 6.55466 271.861 6.896C272.543 7.23733 273.29 7.42933 274.101 7.472C274.357 7.472 274.655 7.62133 274.997 7.92C275.338 8.21866 275.594 8.51733 275.765 8.816C276.831 10.3093 277.727 11.8453 278.453 13.424C278.837 14.0213 279.114 14.704 279.285 15.472C279.498 16.1973 279.647 16.9227 279.733 17.648C280.031 19.7813 279.903 21.8933 279.349 23.984C278.837 26.0747 277.983 27.9947 276.789 29.744C275.594 31.4507 274.101 32.9227 272.309 34.16C270.559 35.3973 268.618 36.2293 266.485 36.656C265.717 36.8693 264.906 37.0187 264.053 37.104C263.242 37.1467 262.431 37.232 261.621 37.36C261.109 37.36 260.447 37.4453 259.637 37.616ZM243.125 20.912C243.125 21.2107 243.146 21.424 243.189 21.552C243.274 21.4667 243.359 21.424 243.445 21.424C243.573 21.3813 243.637 21.3173 243.637 21.232C243.679 21.1467 243.658 21.0613 243.573 20.976C243.53 20.848 243.487 20.7413 243.445 20.656C243.914 20.016 243.914 19.2907 243.445 18.48C243.103 18.9493 242.933 19.376 242.933 19.76C242.933 20.1013 242.997 20.4853 243.125 20.912ZM272.437 9.968C272.351 9.66933 272.223 9.43466 272.053 9.264C271.925 9.05066 271.69 8.944 271.349 8.944C271.391 9.54133 271.69 9.968 272.245 10.224C272.543 10.4373 272.799 10.7573 273.013 11.184C273.269 11.568 273.674 11.7173 274.229 11.632C274.186 10.992 273.994 10.5867 273.653 10.416C273.354 10.2027 272.949 10.0533 272.437 9.968ZM244.597 37.36C244.895 35.952 244.959 34.8213 244.789 33.968C244.661 33.072 244.298 32.304 243.701 31.664C243.402 32.5173 243.274 33.3493 243.317 34.16C243.402 34.9707 243.509 35.7813 243.637 36.592C243.679 36.7627 243.765 36.9333 243.893 37.104C244.063 37.2747 244.213 37.4453 244.341 37.616C244.085 38.256 243.935 38.9173 243.893 39.6C243.85 40.2827 244.042 40.9653 244.469 41.648C244.682 41.904 244.767 42.16 244.725 42.416C244.725 42.672 244.682 42.9707 244.597 43.312C244.511 43.5253 244.447 43.8027 244.405 44.144C244.405 44.4853 244.447 44.6773 244.533 44.72C245.045 45.0187 245.386 45.4027 245.557 45.872C245.77 46.2987 246.069 46.8107 246.453 47.408C246.453 47.0667 246.474 46.7893 246.517 46.576C246.559 46.3627 246.538 46.192 246.453 46.064C246.367 45.7227 246.282 45.3813 246.197 45.04C246.111 44.656 246.026 44.272 245.941 43.888C245.898 43.76 245.813 43.6107 245.685 43.44C245.599 43.2693 245.557 43.12 245.557 42.992C245.642 41.968 245.578 41.008 245.365 40.112C245.194 39.1733 244.938 38.256 244.597 37.36ZM270.708 19.824C270.708 19.696 270.708 19.5253 270.708 19.312C270.708 19.0987 270.666 18.8213 270.581 18.48C270.367 17.2853 269.983 16.1973 269.429 15.216C268.917 14.192 268.042 13.4027 266.805 12.848C265.525 12.336 264.202 12.0587 262.837 12.016C261.471 11.9733 260.149 12.2507 258.869 12.848C256.863 13.7867 255.327 14.8747 254.26 16.112C253.194 17.3493 252.511 18.608 252.213 19.888C251.957 21.168 252.042 22.4053 252.469 23.6C252.895 24.7947 253.621 25.8187 254.645 26.672C255.669 27.5253 256.949 28.144 258.485 28.528C260.063 28.912 261.834 28.912 263.797 28.528C264.778 28.3573 265.674 27.9947 266.485 27.44C267.338 26.8853 268.063 26.224 268.661 25.456C269.301 24.688 269.791 23.8347 270.132 22.896C270.516 21.9147 270.708 20.8907 270.708 19.824ZM263.029 44.4C263.882 45.4667 264.693 46.192 265.461 46.576C266.229 46.96 267.018 47.1093 267.829 47.024C267.829 46.8107 267.807 46.704 267.765 46.704C266.954 46.32 266.165 45.9573 265.397 45.616C264.629 45.232 263.839 44.8267 263.029 44.4ZM244.597 12.656C243.615 12.656 243.146 13.04 243.189 13.808C243.189 14.2773 243.274 14.5973 243.445 14.768C243.658 14.9387 244.042 15.0667 244.597 15.152V12.656ZM263.733 5.744C263.647 5.57333 263.519 5.44533 263.349 5.36C262.41 5.36 261.685 5.70133 261.173 6.384C262.111 7.10933 262.73 7.19466 263.029 6.64C262.901 6.384 262.858 6.23466 262.901 6.192C262.943 6.10667 263.029 6.064 263.157 6.064C263.285 6.02133 263.413 6 263.541 6C263.669 5.95733 263.733 5.872 263.733 5.744ZM243.381 28.656C243.295 29.3813 243.274 29.8293 243.317 30C243.402 30.128 243.722 30.2347 244.277 30.32C244.533 29.5093 244.234 28.9547 243.381 28.656ZM259.317 6.64C258.762 6.42666 258.335 6.384 258.037 6.512C257.781 6.59733 257.503 6.832 257.205 7.216C257.93 7.42933 258.634 7.23733 259.317 6.64ZM243.189 10.416C243.487 10.544 243.722 10.672 243.893 10.8C244.063 10.928 244.277 11.0773 244.533 11.248V8.88C244.277 9.17867 244.063 9.43467 243.893 9.648C243.722 9.86133 243.487 10.1173 243.189 10.416ZM243.765 15.856C243.423 16.112 243.253 16.2613 243.253 16.304C243.253 16.432 243.274 16.56 243.317 16.688C243.402 16.816 243.466 16.944 243.509 17.072C243.637 16.9867 243.765 16.9227 243.893 16.88C244.021 16.7947 244.085 16.7093 244.085 16.624C244.17 16.5387 244.149 16.432 244.021 16.304C243.935 16.176 243.85 16.0267 243.765 15.856ZM243.637 22.192C243.423 22.576 243.274 22.832 243.189 22.96C243.146 23.0453 243.146 23.1307 243.189 23.216C243.189 23.3013 243.21 23.408 243.253 23.536C243.338 23.6213 243.402 23.7067 243.445 23.792C243.487 23.792 243.53 23.792 243.573 23.792C243.658 23.7493 243.722 23.728 243.765 23.728C243.722 23.5147 243.701 23.3227 243.701 23.152C243.701 22.9813 243.679 22.6613 243.637 22.192ZM243.701 25.584C243.658 25.5413 243.637 25.4987 243.637 25.456C243.637 25.4133 243.594 25.3707 243.509 25.328C243.295 25.456 243.189 25.52 243.189 25.52C243.189 25.6053 243.21 25.6693 243.253 25.712C243.338 25.712 243.402 25.7547 243.445 25.84L243.701 25.584ZM305.112 42.352C304.557 42.2667 304.109 42.1813 303.768 42.096C303.469 42.0107 303.17 41.968 302.872 41.968C301.464 41.9253 300.098 41.9253 298.776 41.968C297.453 41.968 296.109 41.968 294.744 41.968H294.168C293.613 42.0533 293.229 42.224 293.016 42.48C292.845 42.6933 292.781 43.0347 292.824 43.504C292.952 44.6987 293.144 45.872 293.4 47.024C293.485 47.3653 293.549 47.7067 293.592 48.048C293.677 48.3467 293.762 48.6667 293.848 49.008C294.061 50.2453 293.869 51.3547 293.272 52.336C292.717 53.2747 291.885 53.8933 290.776 54.192C289.666 54.5333 288.557 54.4693 287.448 54C286.381 53.5307 285.613 52.6987 285.144 51.504C284.93 50.9067 284.76 50.3093 284.632 49.712C284.504 49.072 284.397 48.4107 284.312 47.728C283.672 43.376 283.437 39.0667 283.608 34.8C283.821 30.5333 284.632 26.288 286.04 22.064C286.424 20.784 286.893 19.5467 287.448 18.352C288.002 17.1147 288.642 15.9413 289.368 14.832C290.008 13.7653 290.712 12.8267 291.48 12.016C292.29 11.2053 293.186 10.4373 294.168 9.712C297.88 7.19466 301.784 7.06666 305.88 9.328C307.16 10.0533 308.248 10.928 309.144 11.952C310.082 12.9333 310.914 14.0853 311.64 15.408C312.493 17.1573 313.154 18.9493 313.624 20.784C314.093 22.576 314.413 24.432 314.583 26.352C314.797 28.656 314.861 30.96 314.776 33.264C314.733 35.5253 314.605 37.808 314.392 40.112C314.306 41.6907 314.2 43.2693 314.072 44.848C313.986 46.4267 313.88 47.9627 313.752 49.456C313.709 50.5653 313.581 51.696 313.368 52.848C313.154 53.9573 312.642 54.832 311.832 55.472C311.064 56.112 310.125 56.432 309.016 56.432C307.778 56.432 306.754 56.0693 305.944 55.344C305.133 54.6613 304.685 53.744 304.6 52.592C304.557 51.6107 304.578 50.6293 304.664 49.648C304.749 48.624 304.834 47.6 304.92 46.576C304.962 45.8933 304.984 45.2107 304.984 44.528C305.026 43.8453 305.069 43.12 305.112 42.352ZM305.496 33.264C305.581 32.9227 305.645 32.6027 305.688 32.304C305.773 31.9627 305.794 31.664 305.752 31.408C305.709 30.5547 305.666 29.7013 305.624 28.848C305.581 27.952 305.517 27.0773 305.432 26.224C305.261 25.1147 305.048 24.0053 304.792 22.896C304.578 21.7867 304.194 20.7413 303.64 19.76C303.384 19.2907 303.064 18.8 302.68 18.288C302.338 17.776 301.976 17.328 301.592 16.944C301.165 16.5173 300.76 16.3253 300.376 16.368C300.034 16.4107 299.65 16.6027 299.224 16.944C298.584 17.4133 298.029 17.9467 297.56 18.544C297.133 19.1413 296.728 19.7813 296.344 20.464C295.49 22.128 294.808 23.856 294.296 25.648C293.826 27.44 293.421 29.2747 293.08 31.152C293.037 31.4933 293.016 31.8347 293.016 32.176C293.016 32.5173 292.994 32.8587 292.952 33.2C294.872 33.2853 296.749 33.3493 298.583 33.392C300.418 33.4347 302.232 33.4987 304.024 33.584C304.28 33.584 304.514 33.5627 304.728 33.52C304.941 33.4347 305.197 33.3493 305.496 33.264ZM284.632 41.904H285.08C285.421 41.2213 285.549 40.5173 285.464 39.792C285.421 39.0667 285.421 38.3413 285.464 37.616C285.506 36.8907 285.506 36.144 285.464 35.376C285.464 34.608 285.464 33.7333 285.464 32.752C285.208 33.4773 285.016 34.1813 284.888 34.864C284.802 35.504 284.738 36.144 284.696 36.784C284.653 37.424 284.61 38.0427 284.568 38.64C284.568 39.2373 284.504 39.8133 284.376 40.368C284.333 40.6667 284.333 40.944 284.376 41.2C284.461 41.4133 284.546 41.648 284.632 41.904ZM285.528 31.856C285.784 31.6427 285.954 31.472 286.04 31.344C286.168 31.216 286.232 31.088 286.232 30.96C286.274 30.7893 286.253 30.576 286.168 30.32C286.082 30.064 285.954 29.7227 285.784 29.296C285.656 29.7653 285.485 30.192 285.272 30.576C285.101 30.96 285.186 31.3867 285.528 31.856ZM285.144 46.448C285.272 45.7653 285.336 45.168 285.336 44.656C285.378 44.1013 285.25 43.4827 284.952 42.8C284.781 43.5253 284.674 44.144 284.632 44.656C284.632 45.168 284.802 45.7653 285.144 46.448ZM312.408 32.432C312.194 32.304 312.024 32.176 311.896 32.048C311.81 31.8773 311.725 31.7707 311.64 31.728C311.341 31.6853 311.17 31.7493 311.128 31.92C311.085 32.048 311.064 32.2187 311.064 32.432C311.106 32.6453 311.149 32.8373 311.192 33.008C311.277 33.136 311.469 33.1787 311.768 33.136C311.853 33.0507 311.917 32.944 311.96 32.816C312.045 32.688 312.194 32.56 312.408 32.432ZM311.704 27.12H312.088C312.045 26.9067 312.024 26.6933 312.024 26.48C312.024 26.224 312.024 25.9467 312.024 25.648H311.704V27.12ZM286.36 27.696H286.616V26.8H286.36V27.696ZM285.784 48.048C285.698 47.9627 285.634 47.8773 285.592 47.792C285.592 47.7067 285.57 47.6213 285.528 47.536C285.314 47.664 285.208 47.728 285.208 47.728C285.293 47.8987 285.357 48.048 285.4 48.176C285.442 48.2613 285.485 48.368 285.528 48.496C285.57 48.3253 285.656 48.176 285.784 48.048ZM376.772 21.232C376.729 20.72 376.601 20.2933 376.388 19.952C376.174 19.6107 375.833 19.2267 375.364 18.8C375.022 19.3547 374.809 19.9093 374.724 20.464C374.681 20.976 374.66 21.488 374.66 22C374.66 23.3653 374.574 24.7093 374.404 26.032C374.233 27.312 374.02 28.6347 373.764 30C373.636 30.64 373.529 31.3227 373.444 32.048C373.401 32.7307 373.294 33.4347 373.124 34.16C372.91 35.1413 372.654 36.1013 372.356 37.04C372.1 37.9787 371.801 38.9387 371.46 39.92C371.332 40.1333 371.246 40.4533 371.204 40.88C371.63 41.136 372.142 41.328 372.74 41.456C373.081 40.9013 373.422 40.3893 373.764 39.92C374.105 39.408 374.318 38.8107 374.404 38.128C374.489 37.488 374.617 36.912 374.788 36.4C375.001 35.8453 375.15 35.2693 375.236 34.672C375.278 34.3307 375.364 33.968 375.492 33.584C375.62 33.1573 375.428 32.7733 374.916 32.432C374.702 32.304 374.66 32.0693 374.788 31.728C374.916 31.3867 375.257 31.1733 375.812 31.088C375.854 31.344 375.897 31.5787 375.94 31.792C375.982 32.0053 375.982 32.2187 375.94 32.432C375.641 35.248 375.321 38.0213 374.98 40.752C374.681 43.4827 374.126 46.192 373.316 48.88C373.145 49.3493 372.974 49.8187 372.804 50.288C372.676 50.7147 372.505 51.1413 372.292 51.568C371.78 52.72 371.097 53.5733 370.244 54.128C369.433 54.6827 368.58 55.0027 367.684 55.088C366.788 55.216 365.913 55.1093 365.06 54.768C364.206 54.4693 363.46 54 362.82 53.36C362.222 52.7627 361.646 52.144 361.092 51.504C360.537 50.8213 360.025 50.1173 359.556 49.392C358.83 48.2827 358.148 47.152 357.508 46C356.868 44.8053 356.228 43.6107 355.588 42.416C354.905 41.0507 354.222 39.664 353.54 38.256C352.9 36.8053 352.217 35.3973 351.492 34.032C351.364 33.648 351.193 33.3067 350.979 33.008C350.809 32.6667 350.617 32.2613 350.404 31.792C350.19 32.1333 349.998 32.432 349.828 32.688C349.657 32.9013 349.529 33.136 349.444 33.392C348.846 34.7573 348.27 36.1227 347.716 37.488C347.161 38.8107 346.564 40.1333 345.924 41.456C345.369 42.6933 344.772 43.9307 344.132 45.168C343.534 46.4053 342.916 47.6213 342.276 48.816C341.209 50.3947 340.014 51.9093 338.692 53.36C338.18 53.9573 337.582 54.4053 336.9 54.704C336.26 55.0453 335.577 55.3013 334.852 55.472C333.358 55.728 331.993 55.6 330.756 55.088C329.518 54.6187 328.537 53.7227 327.812 52.4C327.342 51.632 326.916 50.8427 326.532 50.032C326.19 49.1787 325.913 48.3253 325.7 47.472C325.102 45.2533 324.548 43.0347 324.036 40.816C323.524 38.5547 323.033 36.3147 322.564 34.096C321.966 31.152 321.433 28.2507 320.964 25.392C320.537 22.4907 320.089 19.568 319.62 16.624C319.321 14.8747 319.044 13.1467 318.788 11.44C318.574 9.73333 318.34 8.00533 318.084 6.256C318.041 6 318.02 5.76533 318.02 5.552C318.02 5.33867 318.02 5.12533 318.02 4.912C318.062 3.80266 318.404 2.864 319.044 2.096C319.726 1.328 320.58 0.879997 321.604 0.751999C322.756 0.495997 323.78 0.602664 324.676 1.072C325.572 1.49866 326.254 2.224 326.724 3.248C326.852 3.58933 326.937 3.93067 326.98 4.272C327.065 4.61333 327.15 4.912 327.236 5.168C327.62 7.81333 327.961 10.4587 328.26 13.104C328.558 15.7493 328.942 18.352 329.412 20.912C330.094 24.4107 330.777 27.9093 331.46 31.408C332.142 34.9067 332.846 38.4267 333.572 41.968C333.657 42.224 333.764 42.5013 333.892 42.8C334.02 43.0987 334.126 43.3973 334.212 43.696C334.724 43.6107 335.044 43.44 335.172 43.184C335.342 42.8853 335.492 42.5653 335.62 42.224C336.089 41.1147 336.601 40.0267 337.156 38.96C337.71 37.8507 338.222 36.72 338.692 35.568C339.545 33.4347 340.42 31.344 341.316 29.296C342.212 27.2053 343.065 25.1147 343.876 23.024C344.345 21.7867 344.985 20.8267 345.796 20.144C346.606 19.4187 347.588 18.8427 348.74 18.416C350.788 17.8613 352.537 18.3733 353.988 19.952C354.585 20.5493 355.097 21.2747 355.524 22.128C356.249 23.4933 356.974 24.88 357.7 26.288C358.425 27.696 359.15 29.104 359.876 30.512C360.644 31.9627 361.369 33.456 362.052 34.992C362.777 36.528 363.502 38.0427 364.228 39.536C364.313 39.7493 364.462 40.0053 364.676 40.304C364.889 40.56 365.102 40.9013 365.316 41.328C365.444 40.9867 365.55 40.7307 365.636 40.56C365.764 40.3467 365.828 40.1333 365.828 39.92C366.041 37.9147 366.254 35.9307 366.468 33.968C366.724 32.0053 366.958 30 367.172 27.952C367.385 25.392 367.598 22.8107 367.812 20.208C368.025 17.6053 368.26 15.024 368.516 12.464C368.601 11.3547 368.665 10.2453 368.708 9.136C368.75 7.984 368.857 6.832 369.028 5.68C369.241 4.48533 369.732 3.568 370.5 2.928C371.31 2.288 372.334 1.968 373.572 1.968C374.809 2.05333 375.812 2.48 376.58 3.248C377.348 4.016 377.753 5.04 377.796 6.32C377.838 7.42933 377.817 8.53866 377.732 9.648C377.689 10.7147 377.625 11.824 377.54 12.976C377.412 14.384 377.262 15.7707 377.092 17.136C376.964 18.4587 376.857 19.824 376.772 21.232ZM344.324 31.856C345.006 31.0453 345.518 30.192 345.86 29.296C346.201 28.3573 346.265 27.312 346.052 26.16C345.582 26.4587 345.305 26.7787 345.22 27.12C345.134 27.4187 345.049 27.7387 344.964 28.08C344.878 28.6773 344.665 29.296 344.324 29.936C344.025 30.576 344.025 31.2373 344.324 31.92C344.153 32.0053 344.046 32.0907 344.004 32.176C343.961 32.176 343.94 32.1973 343.94 32.24V32.368H344.068C344.11 32.368 344.132 32.3467 344.132 32.304C344.217 32.048 344.281 31.8987 344.324 31.856ZM354.692 33.904C355.118 34.5013 355.524 35.1413 355.908 35.824C356.292 36.5067 356.676 37.2107 357.06 37.936C357.188 38.0213 357.316 38.128 357.444 38.256C357.614 38.384 357.742 38.512 357.828 38.64C357.87 38.5547 357.934 38.4693 358.02 38.384C357.934 38.256 357.849 38.1493 357.764 38.064C357.678 37.936 357.593 37.7867 357.508 37.616C357.252 36.5493 356.868 35.568 356.356 34.672C355.844 33.7333 355.31 32.7947 354.756 31.856C354.67 31.6853 354.436 31.4933 354.052 31.28C354.137 31.792 354.201 32.2187 354.244 32.56C354.329 32.8587 354.414 33.1787 354.5 33.52C354.244 33.136 353.902 32.7307 353.476 32.304C353.305 32.944 353.348 33.4773 353.604 33.904C353.902 34.288 354.222 34.672 354.564 35.056C354.606 34.8427 354.628 34.6507 354.628 34.48C354.67 34.3093 354.692 34.1173 354.692 33.904ZM326.02 21.552C326.062 21.0827 326.084 20.6987 326.084 20.4C326.126 20.1013 326.126 19.8453 326.084 19.632C326.041 19.376 325.956 19.1627 325.828 18.992C325.742 18.7787 325.614 18.5227 325.444 18.224C325.529 18.9493 325.529 19.5893 325.444 20.144C325.401 20.656 325.572 21.1467 325.956 21.616C325.188 23.8347 325.38 26.032 326.532 28.208C326.617 28.3787 326.66 28.5493 326.66 28.72C326.702 28.848 326.766 28.9973 326.852 29.168C326.425 29.6373 326.19 30.128 326.148 30.64C326.148 31.152 326.19 31.6427 326.276 32.112C326.489 33.3493 326.681 34.5653 326.852 35.76C327.065 36.912 327.3 38.1067 327.556 39.344C327.684 39.8133 327.833 40.304 328.004 40.816C328.217 41.2853 328.43 41.7547 328.644 42.224C328.644 42.2667 328.686 42.3093 328.772 42.352C328.857 42.352 328.942 42.3733 329.028 42.416C329.156 42.3307 329.305 42.2453 329.476 42.16C329.646 42.0747 329.817 41.9893 329.988 41.904C329.817 41.136 329.625 40.3893 329.412 39.664C329.241 38.9387 329.07 38.2347 328.9 37.552C328.814 37.2533 328.665 36.976 328.452 36.72C328.238 36.464 328.153 36.2293 328.196 36.016C328.281 35.4613 328.238 34.9493 328.068 34.48C327.94 34.0107 327.918 33.4987 328.004 32.944C328.004 31.664 327.641 30.4267 326.916 29.232C327.001 29.104 327.086 28.9973 327.172 28.912C327.257 28.784 327.3 28.6773 327.3 28.592C327.257 28.1227 327.214 27.6533 327.172 27.184C327.172 26.7147 327.086 26.224 326.916 25.712C326.745 25.072 326.66 24.3893 326.66 23.664C326.66 22.9387 326.446 22.2347 326.02 21.552ZM375.172 14.192C375.001 15.0453 374.894 15.8133 374.852 16.496C374.852 17.1787 375.022 17.9467 375.364 18.8C375.833 18.0747 376.089 17.4133 376.132 16.816C376.174 16.2187 376.153 15.6427 376.068 15.088C376.068 14.96 375.769 14.6613 375.172 14.192ZM342.788 35.184C343.257 34.8 343.513 34.544 343.556 34.416C343.641 34.288 343.705 34.0533 343.748 33.712C343.748 33.6267 343.705 33.5627 343.62 33.52C343.534 33.4773 343.449 33.4133 343.364 33.328C343.278 33.6693 343.193 33.968 343.108 34.224C343.065 34.48 342.958 34.8 342.788 35.184ZM355.524 37.936C355.609 37.8933 355.673 37.8507 355.716 37.808C355.801 37.7227 355.886 37.6587 355.972 37.616C355.886 37.4453 355.758 37.296 355.588 37.168C355.46 36.9973 355.332 36.8267 355.204 36.656C355.161 36.6987 355.118 36.7413 355.076 36.784C355.033 36.784 354.99 36.8053 354.948 36.848C355.033 37.0613 355.118 37.2533 355.204 37.424C355.289 37.5947 355.396 37.7653 355.524 37.936ZM357.252 39.856C357.081 39.9413 356.953 40.0693 356.868 40.24C357.294 40.4533 357.614 40.6667 357.828 40.88C357.87 40.7947 357.934 40.7093 358.02 40.624C357.892 40.5387 357.764 40.432 357.636 40.304C357.55 40.176 357.422 40.0267 357.252 39.856ZM352.708 30.32C352.708 30.32 352.665 30.2773 352.58 30.192C352.452 30.2773 352.388 30.3627 352.388 30.448C352.43 30.4907 352.451 30.5333 352.451 30.576C352.537 30.5333 352.58 30.4907 352.58 30.448C352.622 30.4053 352.665 30.3627 352.708 30.32ZM373.764 36.784L373.828 36.72L373.892 36.784H373.764ZM376.58 22.96C376.537 22.96 376.494 22.9813 376.452 23.024C376.494 22.9813 376.516 22.96 376.516 22.96C376.516 22.9173 376.537 22.8747 376.58 22.832V22.96ZM376.132 26.288V26.352C376.089 26.3947 376.068 26.416 376.068 26.416C376.025 26.3733 375.982 26.352 375.94 26.352V26.224C375.94 26.1813 375.961 26.16 376.004 26.16C376.089 26.16 376.132 26.2027 376.132 26.288ZM395.953 54.512C394.801 54.384 393.627 54.2773 392.433 54.192C391.238 54.1067 390.065 53.9787 388.913 53.808C387.462 53.5947 386.31 53.0827 385.457 52.272C384.603 51.4613 383.942 50.3947 383.473 49.072C383.174 48.048 382.961 47.0453 382.833 46.064C382.705 45.04 382.619 43.9947 382.577 42.928C382.449 39.8987 382.342 36.8907 382.257 33.904C382.214 30.8747 382.15 27.8453 382.065 24.816C381.979 22.4693 381.894 20.144 381.809 17.84C381.766 15.4933 381.702 13.1467 381.617 10.8C381.617 10.3307 381.617 9.88266 381.617 9.456C381.617 9.02933 381.659 8.58133 381.745 8.112C381.83 6.87466 382.278 5.89333 383.089 5.168C383.899 4.4 384.923 4.016 386.161 4.016C387.398 3.97333 388.422 4.31466 389.233 5.04C390.086 5.76533 390.577 6.74666 390.705 7.984C390.747 8.28267 390.769 8.58133 390.769 8.88C390.769 9.136 390.769 9.41333 390.769 9.712C391.025 20.6347 391.345 31.664 391.729 42.8C391.729 43.4827 391.75 44.0373 391.793 44.464C391.878 44.848 392.006 45.1467 392.177 45.36C392.39 45.5307 392.689 45.6587 393.073 45.744C393.499 45.8293 394.054 45.8933 394.737 45.936C398.022 46.064 401.137 45.7227 404.081 44.912C404.55 44.8267 405.019 44.7627 405.489 44.72C405.958 44.6347 406.449 44.6133 406.961 44.656C407.771 44.6987 408.454 44.9547 409.009 45.424C409.563 45.8507 409.99 46.4267 410.289 47.152C410.886 48.7307 410.651 50.1387 409.585 51.376C409.115 51.9307 408.582 52.3573 407.985 52.656C407.43 52.9547 406.79 53.1893 406.065 53.36C402.865 54.128 399.494 54.512 395.953 54.512ZM404.337 49.84C404.337 49.456 404.315 49.264 404.273 49.264C404.102 49.0933 403.91 49.008 403.697 49.008C403.355 49.0507 403.035 49.1147 402.737 49.2C402.438 49.2427 402.118 49.2427 401.777 49.2C400.625 49.1147 399.451 49.1787 398.257 49.392C397.105 49.5627 395.931 49.712 394.737 49.84C394.651 49.84 394.374 50.0747 393.905 50.544C394.459 50.672 394.801 50.736 394.929 50.736C396.55 50.5653 398.129 50.416 399.665 50.288C401.243 50.1173 402.801 49.968 404.337 49.84ZM388.593 33.584C388.763 32.7307 388.87 31.92 388.913 31.152C388.955 30.384 388.806 29.5733 388.465 28.72C388.294 29.5733 388.187 30.384 388.145 31.152C388.102 31.92 388.251 32.7307 388.593 33.584ZM388.465 35.376C388.507 35.9733 388.529 36.5067 388.529 36.976C388.571 37.4453 388.614 37.8933 388.657 38.32C388.699 38.4053 388.763 38.512 388.849 38.64C388.934 38.768 389.062 38.96 389.233 39.216C389.275 38.448 389.297 37.7867 389.297 37.232C389.297 36.6773 389.019 36.0587 388.465 35.376ZM388.465 24.816C388.465 24.7733 388.465 24.752 388.465 24.752C388.507 24.752 388.529 24.7307 388.529 24.688L388.593 24.624C388.55 24.5387 388.507 24.4747 388.465 24.432C388.465 24.3893 388.443 24.3253 388.401 24.24C388.401 24.3253 388.401 24.432 388.401 24.56C388.443 24.6453 388.465 24.7307 388.465 24.816ZM388.465 21.936H388.593L388.529 21.808L388.465 21.936Z" fill="black"/>
</svg>
